<svg width="60" height="60" viewBox="0 0 60 60" fill="none" xmlns="http://www.w3.org/2000/svg">
<circle cx="30" cy="30" r="30" fill="#F65113"/>
<path d="M30.2617 32.6174C31.5919 33.077 32.7543 33.4777 35.0484 32.8031C34.774 30.2601 32.6149 28.2734 30 28.2734C27.5637 28.2734 25.5227 29.9982 25.0336 32.2909C27.5058 31.6653 28.9598 32.1675 30.2617 32.6174Z" fill="white"/>
<path d="M30 38.4297C32.4402 38.4297 34.4838 36.6994 34.9688 34.4013C34.1555 34.6013 33.4523 34.6808 32.829 34.6808C31.568 34.6808 30.6322 34.3573 29.7641 34.0574C28.4293 33.5962 27.2633 33.1941 24.9508 33.8941C25.2226 36.4399 27.3831 38.4297 30 38.4297Z" fill="white"/>
<path d="M19.5898 43H40.4102V24.6172H19.5898V43ZM30 26.75C33.6402 26.75 36.6016 29.7114 36.6016 33.3516C36.6016 36.9917 33.6402 39.9531 30 39.9531C26.3598 39.9531 23.3984 36.9917 23.3984 33.3516C23.3984 29.7114 26.3598 26.75 30 26.75Z" fill="white"/>
<path d="M19.5898 17V23.0938H31.2695V19.0312H38.3789V23.0938H40.4102V17H19.5898ZM23.3984 21.5703C22.9777 21.5703 22.6367 21.2293 22.6367 20.8086C22.6367 20.3879 22.9777 20.0469 23.3984 20.0469C23.8192 20.0469 24.1602 20.3879 24.1602 20.8086C24.1602 21.2293 23.8192 21.5703 23.3984 21.5703ZM27.207 21.5703H25.6836V20.0469H27.207V21.5703Z" fill="white"/>
<path d="M32.793 20.5547H36.8555V23.0938H32.793V20.5547Z" fill="white"/>
</svg>
