<svg width="108" height="35" viewBox="0 0 108 35" fill="none" xmlns="http://www.w3.org/2000/svg">
<g opacity="0.2">
<g clip-path="url(#clip0)">
<path d="M13.3006 0.0035072L14.261 0.00350703C17.5952 0.0754732 20.8751 1.40686 23.2308 3.76377C22.361 4.64536 21.4731 5.49097 20.6214 6.37256C19.2986 5.18511 17.7039 4.26754 15.9643 3.94369C13.3912 3.40394 10.6187 3.88971 8.46233 5.34704C6.10663 6.87633 4.512 9.46714 4.1677 12.2379C3.78717 14.9726 4.56636 17.8513 6.36032 19.9743C8.0818 22.0433 10.7093 23.3387 13.4274 23.4287C15.9643 23.5726 18.61 22.799 20.4583 21.0358C21.908 19.7944 22.5784 17.9052 22.7959 16.0701C19.7878 16.0701 16.7798 16.0881 13.7717 16.0701L13.7717 12.3638L26.4382 12.3638C27.0905 16.34 26.1482 20.8199 23.1039 23.6626C21.0744 25.6776 18.2657 26.8651 15.4026 27.099C12.6301 27.3689 9.76704 26.8471 7.30261 25.5157C4.34891 23.9504 1.99321 21.3057 0.833477 18.1931C-0.253772 15.3324 -0.271893 12.0939 0.742872 9.21525C1.66703 6.58847 3.44287 4.26754 5.72609 2.64829C7.91871 1.04703 10.5825 0.165433 13.3006 0.0035072Z" fill="black"/>
<path d="M85.9652 0.93869L89.843 0.93869L89.843 26.6308C88.5565 26.6308 87.2518 26.6488 85.9652 26.6128C85.9833 18.0668 85.9652 9.50273 85.9652 0.93869Z" fill="black"/>
<path d="M35.0639 9.84447C37.4558 9.39468 40.0471 9.89845 42.0223 11.3198C43.8163 12.5792 45.0666 14.5583 45.4471 16.7173C45.9364 19.2181 45.3203 21.9529 43.6894 23.932C41.9317 26.1449 39.0505 27.3324 36.2418 27.1525C33.6686 27.0085 31.1679 25.7311 29.6458 23.6441C27.9243 21.3412 27.5075 18.1746 28.4498 15.4759C29.3921 12.5792 32.0558 10.3662 35.0639 9.84447ZM35.6075 13.2629C34.629 13.5148 33.723 14.0725 33.0706 14.8642C31.3129 16.9512 31.4216 20.3516 33.3605 22.2947C34.4659 23.4102 36.133 23.932 37.6733 23.6261C39.1048 23.3742 40.3552 22.4207 41.0438 21.1612C42.2397 19.0202 41.8954 16.0696 40.0652 14.3964C38.8874 13.3169 37.1659 12.8671 35.6075 13.2629Z" fill="black"/>
<path d="M54.2718 9.84461C57.0081 9.32285 59.998 10.0785 62.0456 11.9856C65.3799 14.9542 65.7423 20.5137 62.8973 23.9321C61.1758 26.0911 58.3852 27.2785 55.6309 27.1526C53.0034 27.0806 50.4121 25.7852 48.8537 23.6442C47.096 21.2873 46.7154 18.0488 47.7121 15.2961C48.7087 12.4894 51.3181 10.3484 54.2718 9.84461ZM54.8154 13.263C53.8369 13.5149 52.9309 14.0727 52.2785 14.8463C50.5389 16.8973 50.6114 20.2438 52.4779 22.2049C53.5832 23.3744 55.3047 23.9501 56.8993 23.6262C58.3128 23.3564 59.5812 22.4208 60.2698 21.1614C61.4477 19.0024 61.1034 16.0517 59.255 14.3785C58.0772 13.299 56.3557 12.8672 54.8154 13.263Z" fill="black"/>
<path d="M70.5625 10.888C72.6464 9.59264 75.4189 9.23281 77.6658 10.3483C78.3726 10.6542 78.9524 11.1759 79.5142 11.6977C79.5323 11.2119 79.5142 10.7081 79.5323 10.2044C80.7464 10.2224 81.9605 10.2044 83.1927 10.2224L83.1927 26.091C83.1746 28.4839 82.5585 31.0207 80.8189 32.7659C78.9162 34.691 75.9987 35.2848 73.3712 34.889C70.5625 34.4751 68.1162 32.4421 67.0289 29.8693C68.1162 29.3475 69.2578 28.9337 70.3813 28.4479C71.0155 29.9233 72.3021 31.1827 73.9148 31.4705C75.5276 31.7584 77.394 31.3626 78.445 30.0312C79.5685 28.6638 79.5685 26.7927 79.5142 25.1195C78.6806 25.9291 77.7202 26.6488 76.5605 26.9186C74.0417 27.6203 71.2692 26.7567 69.3303 25.0655C67.3732 23.3743 66.2135 20.7655 66.3222 18.1747C66.3766 15.242 68.0437 12.4173 70.5625 10.888ZM74.3135 13.191C73.2081 13.3709 72.1752 13.9826 71.4685 14.8282C69.7652 16.8433 69.7652 20.0638 71.4866 22.0429C72.4652 23.2124 74.0417 23.8601 75.5638 23.6981C76.9954 23.5542 78.3182 22.6546 79.0249 21.4132C80.2209 19.3082 80.0216 16.4475 78.4088 14.6123C77.4122 13.4788 75.8175 12.9211 74.3135 13.191Z" fill="black"/>
<path d="M94.4999 11.8057C96.6744 9.79061 100.027 9.10693 102.817 10.1684C105.463 11.158 107.148 13.6588 108 16.2316C104.068 17.8509 100.154 19.4522 96.2214 21.0714C96.765 22.0969 97.5986 23.0325 98.7221 23.4103C100.299 23.9681 102.183 23.7702 103.506 22.7266C104.031 22.3308 104.448 21.8091 104.847 21.3053C105.844 21.971 106.84 22.6187 107.837 23.2844C106.423 25.3894 104.05 26.8647 101.495 27.0986C98.6677 27.4405 95.6597 26.361 93.8295 24.166C90.8214 20.7116 91.1113 14.9182 94.4999 11.8057ZM96.4389 15.1341C95.8228 16.0157 95.5691 17.0952 95.5872 18.1568C98.2147 17.0773 100.842 15.9977 103.47 14.9003C103.035 13.8927 101.984 13.281 100.915 13.1191C99.1932 12.8132 97.3993 13.7308 96.4389 15.1341Z" fill="black"/>
</g>
</g>
<defs>
<clipPath id="clip0">
<rect width="108" height="35" fill="white"/>
</clipPath>
</defs>
</svg>
