<?xml version="1.0" encoding="UTF-8" standalone="no"?>
<!-- Created with Inkscape (http://www.inkscape.org/) -->

<svg
   xmlns:dc="http://purl.org/dc/elements/1.1/"
   xmlns:cc="http://creativecommons.org/ns#"
   xmlns:rdf="http://www.w3.org/1999/02/22-rdf-syntax-ns#"
   xmlns:svg="http://www.w3.org/2000/svg"
   xmlns="http://www.w3.org/2000/svg"
   xmlns:sodipodi="http://sodipodi.sourceforge.net/DTD/sodipodi-0.dtd"
   xmlns:inkscape="http://www.inkscape.org/namespaces/inkscape"
   version="1.0"
   width="1366.75"
   height="176.5"
   id="svg1918"
   inkscape:version="0.48.4 r9939"
   sodipodi:docname="Electrolux logo.svg">
  <metadata
     id="metadata3021">
    <rdf:RDF>
      <cc:Work
         rdf:about="">
        <dc:format>image/svg+xml</dc:format>
        <dc:type
           rdf:resource="http://purl.org/dc/dcmitype/StillImage" />
      </cc:Work>
    </rdf:RDF>
  </metadata>
  <sodipodi:namedview
     pagecolor="#ffffff"
     bordercolor="#666666"
     borderopacity="1"
     objecttolerance="10"
     gridtolerance="10"
     guidetolerance="10"
     inkscape:pageopacity="0"
     inkscape:pageshadow="2"
     inkscape:window-width="1024"
     inkscape:window-height="520"
     id="namedview3019"
     showgrid="false"
     inkscape:zoom="0.35355339"
     inkscape:cx="872.01809"
     inkscape:cy="56.664707"
     inkscape:window-x="-4"
     inkscape:window-y="-4"
     inkscape:window-maximized="1"
     inkscape:current-layer="svg1918" />
  <defs
     id="defs1920" />
  <g
     transform="translate(-138.3638,-447.18598)"
     id="layer1"
     style="fill:#000000">
    <g
       transform="matrix(2.42265,0,0,2.42265,-175.3724,-865.8249)"
       style="fill:#000000"
       id="g5487">
      <path
         d="m 660.8128,596.52738 5.48464,7.84001 c 2.51656,2.47142 0.90341,6.03317 -1.74214,6.80108 -0.58076,0.18074 -0.96797,0.47105 -0.96797,0.9292 l 0,1.0002 30.06938,-0.007 0,-1.10985 c 0,-0.30976 -0.129,-0.67753 -0.45165,-0.80012 -0.19355,-0.0516 -0.38721,-0.10317 -0.58076,-0.16774 -3.0972,-1.026 -5.74288,-2.58111 -8.25942,-5.82673 l -14.71202,-19.41608 6.58171,-8.19486 c 4.32324,-4.87179 9.80801,-8.19488 13.03432,-8.8595 0.64529,-0.12909 0.77441,-0.41943 0.77441,-0.97434 l 0,-0.87108 -1.0325,0 -16.97051,0.006 c 0,0 0,0 0,0 l -0.96784,0 c 0,0 0,0.46456 0,0.86468 0,0.49038 0.19355,0.81303 0.58075,1.01948 0.12901,0.10328 0.12901,0.10969 0.25811,0.20007 1.29051,0.78081 2.38744,2.86502 -0.5162,6.25264 0,0.0774 -2.06491,2.61975 -5.03312,6.18163 l 0,-0.0517 -4.2587,-5.75578 c -2.58111,-2.54226 -0.77432,-6.27197 1.9358,-6.88495 0.6452,-0.12259 0.77429,-0.40652 0.77429,-0.96143 l 0,-0.87758 -1.03239,0.006 -28.32722,0 c 0,0 -0.0644,0.47096 -0.0644,0.87108 0,0.70334 0.5162,1.0582 1.1614,1.23246 3.03276,1.01946 5.67841,2.57459 8.19488,5.79449 l 12.77631,17.33178 -8.25941,9.96934 c -4.32326,4.81375 -8.00131,8.45306 -10.96952,9.10475 -0.64531,0.13552 -0.96797,0.46457 -0.96797,0.92272 l 0,1.0002 17.42225,-0.007 0,-1.08403 c 0,-0.31615 -0.12912,-0.63241 -0.45176,-0.80654 -0.25808,-0.0969 -0.3871,-0.1484 -0.5162,-0.25809 -1.22594,-0.82594 -2.19389,-2.89085 0.64531,-6.19461 0,-0.071 3.41986,-4.71046 6.38818,-8.27234 l 0,0.0516"
         style="fill:#000000;fill-rule:evenodd;stroke:none"
         id="path4772"
         inkscape:connector-curvature="0" />
      <path
         d="m 281.20315,556.96615 c -1.54863,-3.71669 -5.54932,-5.2976 -9.80803,-5.2976 l -17.29313,0 0,23.15217 13.61508,0.0322 c 4.64591,0 8.84017,-0.85816 9.67901,-4.35558 0.0645,-0.41293 0.3871,-0.71615 0.77431,-0.72265 l 0.77429,0.006 0,16.30577 -0.77429,0.006 c -0.38721,0.006 -0.6453,-0.34846 -0.83886,-0.81303 -1.09695,-3.01342 -5.22667,-4.46525 -9.61446,-4.46525 l -13.61508,0 0,18.55781 c 0,5.53001 2.00034,7.02698 7.54956,7.02698 l 9.74357,0 c 4.58135,0 9.67891,-2.24556 11.42117,-6.60755 0.12911,-0.32905 0.3872,-0.49038 0.77429,-0.49038 l 0.64533,0 0,13.74418 -51.42766,0 0,-0.8905 c 0,-0.45815 0.32264,-0.87758 0.96782,-0.9292 3.16187,-0.23229 5.61387,-3.51023 5.61387,-8.55617 l 0,-47.61418 c 0,-5.03953 -2.452,-8.33678 -5.61387,-8.57556 -0.64518,-0.0517 -0.96782,-0.47107 -0.96782,-0.92912 l 0,-0.89049 49.81448,0 0,12.80204 -0.64529,0 c -0.32266,-0.0129 -0.6453,-0.21938 -0.77429,-0.49689"
         style="fill:#000000;fill-rule:nonzero;stroke:none"
         id="path4774"
         inkscape:connector-curvature="0" />
      <path
         d="m 315.33766,613.04622 0.0645,-0.8905 c 0,-0.45815 -0.32264,-0.87758 -1.03239,-0.9292 -3.09732,-0.23229 -5.61388,-3.54897 -5.61388,-8.58848 l 0,-49.37567 c 0,-3.79414 0,-11.28567 0,-11.28567 l -19.87413,2.6843 0,0.89049 c 0,0.45805 0.32266,0.87746 0.96786,0.92912 3.16185,0.23878 5.61385,3.51671 5.61385,8.55625 0,-0.1162 0.0646,47.62058 0.0646,47.62058 0,5.03302 -2.51656,8.33679 -5.61388,8.56908 -0.70973,0.0516 -1.03239,0.47105 -1.03239,0.9292 l 0.0645,0.8905 26.39132,0"
         style="fill:#000000;fill-rule:nonzero;stroke:none"
         id="path4776"
         inkscape:connector-curvature="0" />
      <path
         d="m 578.6059,613.04622 0.0646,-0.8905 c 0,-0.45815 -0.32266,-0.87758 -1.03243,-0.9292 -3.09728,-0.23229 -5.61384,-3.54897 -5.61384,-8.58848 l 0,-49.37567 c 0,-3.79414 0,-11.28567 0,-11.28567 l -19.87416,2.6843 0,0.89049 c 0,0.45805 0.32267,0.87746 0.96785,0.92912 3.09732,0.23878 5.61388,3.51671 5.61388,8.55625 0,-0.1162 0.0646,47.62058 0.0646,47.62058 0,5.03302 -2.51655,8.33679 -5.61387,8.56908 -0.70975,0.0516 -1.03242,0.47105 -1.03242,0.9292 l 0,0.8905 26.45586,0"
         style="fill:#000000;fill-rule:nonzero;stroke:none"
         id="path4778"
         inkscape:connector-curvature="0" />
      <path
         d="m 476.58944,566.05802 c 0,0 0,6.53006 0,10.33061 2.0649,-3.80705 6.13007,-11.20819 14.90569,-11.20819 1.61315,0 2.90364,0.34846 3.80705,0.68392 l -3.67805,12.72469 c -0.45166,0 -3.87161,0 -5.61377,0 -5.67832,0 -9.22725,3.67796 -9.22725,8.20779 l 0,15.8348 c 0,5.03951 2.51645,8.36259 5.61373,8.59488 0.70977,0.0516 1.03241,0.47105 0.96797,0.9292 l 0,0.8905 -26.2623,0 0,-0.8905 c 0,-0.45815 0.32253,-0.87758 1.03239,-0.9292 3.09721,-0.23229 5.61375,-3.54245 5.61375,-8.58196 0,-3.691 0,-19.11277 0,-23.53931 0,-5.03311 -2.12935,-8.06588 -5.61375,-8.55625 -0.51619,-0.0645 -1.03239,-0.6323 -1.03239,-1.12277 0,-0.49038 0,-0.69045 0,-0.69045 l 19.48693,-2.67776"
         style="fill:#000000;fill-rule:nonzero;stroke:none"
         id="path4780"
         inkscape:connector-curvature="0" />
      <path
         d="m 634.48593,613.09135 -12.13104,0 c -4.12969,0 -5.35565,-2.59391 -5.35565,-4.75559 -5.35576,4.08457 -9.22728,5.83323 -16.19619,6.07843 -7.80766,0.24518 -14.97013,-4.60077 -14.97013,-13.27963 l -0.0645,-21.99709 c 0,-5.0459 -2.51656,-8.32387 -5.61377,-8.56264 -0.64529,-0.0517 -1.0325,-0.47109 -0.96793,-0.92272 l 0,-0.89691 20.32589,-2.68428 0,28.60452 c 0,12.78924 12.58267,11.42767 17.48668,7.82069 l 0,-23.37157 c 0,-5.03951 -2.51654,-8.31096 -5.61387,-8.54973 -0.70974,-0.0517 -1.03241,-0.47109 -1.03241,-0.92272 l 0,-0.89691 20.32592,-2.68428 0,36.51559 c 0,3.94255 0.77429,8.0012 3.87159,8.65941 0.5162,0.10968 0.9033,0.33555 0.9033,1.05184 0,0.38068 0,0.79359 0,0.79359 l -0.96784,0"
         style="fill:#000000;fill-rule:nonzero;stroke:none"
         id="path4782"
         inkscape:connector-curvature="0" />
      <path
         d="m 414.3859,580.54418 0,-12.02124 c 0,0 -6.9689,-3.16828 -18.19654,-3.16828 -14.64745,0 -24.77813,7.42057 -24.90723,25.43637 -0.12902,14.23457 8.19487,23.75865 24.3265,23.75865 10.64696,0 16.84148,-5.25887 19.09994,-7.37542 1.4195,-1.05823 1.4195,-2.01316 1.4195,-3.21981 0,-1.20674 0.0645,-3.32959 0.0645,-3.32959 -4.32325,3.13595 -10.1951,5.29111 -15.87351,5.29111 -11.67929,0 -15.09926,-8.26582 -15.09926,-17.43504 0,-3.78122 1.22606,-16.68006 12.13105,-16.80266 7.03334,0 11.03407,2.12287 15.16377,9.00791 0.70974,1.04532 1.16139,1.27118 1.87124,1.12277 l 0,-1.26477"
         style="fill:#000000;fill-rule:nonzero;stroke:none"
         id="path4784"
         inkscape:connector-curvature="0" />
      <path
         d="m 522.91954,571.58141 c -8.71105,0 -11.16307,6.81407 -11.16307,17.5319 0,8.64013 0.12899,19.47414 11.29208,19.47414 10.71142,-0.24518 10.58242,-9.2596 10.58242,-19.11274 0,-11.50514 -2.8392,-17.82875 -10.71143,-17.8933 l 0,0 z m -0.77429,-6.45902 c 11.29208,-0.18075 26.64939,2.67136 26.77849,23.86835 0,16.54454 -6.19459,25.55894 -26.58495,25.55894 -14.13127,0 -25.617,-3.17477 -25.617,-24.46851 -0.1291,-21.65502 15.67988,-24.82977 25.42346,-24.95237 l 0,-0.006"
         style="fill:#000000;fill-rule:nonzero;stroke:none"
         id="path4786"
         inkscape:connector-curvature="0" />
      <path
         d="m 365.41028,588.26156 -32.19875,0 c -0.64529,14.60234 7.29147,17.51891 14.97014,17.64151 6.51717,0 11.48572,-2.23253 15.74442,-5.22016 0,0 0,2.94238 0,3.69737 0,0.7614 -0.38708,1.36156 -0.58072,1.72283 -2.90367,3.91035 -10.32423,8.45299 -20.51935,8.45299 -13.93774,0 -23.68129,-7.1818 -23.68129,-23.61666 0,-18.05454 10.00166,-25.488 23.93939,-25.56547 l 0,0 c 14.38937,0 21.80995,6.78178 22.32616,21.57127 l 0,1.31632 z m -22.45526,-17.5318 c 0,0 0,0 0,0 -4.45236,0.24517 -8.51752,2.1874 -9.74349,11.80825 l 19.03531,0 c 0.12909,-9.86606 -4.83946,-11.56308 -9.42082,-11.80825 l 0.129,0"
         style="fill:#000000;fill-rule:nonzero;stroke:none"
         id="path4788"
         inkscape:connector-curvature="0" />
      <path
         d="m 452.4566,569.00681 0,-2.10354 -14.84114,0 0,-13.73767 -19.61603,20.31939 6.25906,0 0,26.93984 c 0,4.59425 1.4196,14.27967 14.38936,14.40227 5.74287,0 9.80803,-2.05188 12.96989,-4.83306 1.16139,-0.94203 1.16139,-1.54208 1.22596,-2.47771 0.0645,-0.80664 0,-1.74877 0,-3.32959 -8.19487,4.62008 -15.22824,1.71633 -15.22824,-7.24633 l 0,-23.45542 10.51776,0 c 2.06491,-0.33557 4.32338,-1.46474 4.32338,-4.47818"
         style="fill:#000000;fill-rule:nonzero;stroke:none"
         id="path4790"
         inkscape:connector-curvature="0" />
      <path
         d="m 199.77066,543.41562 -70.26941,0 0,70.23718 70.26941,0 0,-70.23718 z m -25.87521,66.25589 0,-62.2811 c 13.42154,3.97488 23.22957,16.49302 23.22957,31.12117 0,14.67981 -9.80803,27.13988 -23.22957,31.15993 z m -41.68408,-32.65688 c 0.77429,-17.2351 15.03469,-30.94693 32.45681,-30.94693 2.06491,0 4.12971,0.20003 6.13007,0.58713 0,16.8543 -13.61508,30.3598 -30.52112,30.3598 l -8.06576,0 z m 8.06576,3.03265 c 16.90604,0 30.52112,13.47968 30.52112,30.36619 -2.00036,0.38079 -4.06516,0.58076 -6.13007,0.58076 -17.42212,0 -31.68252,-13.71185 -32.45681,-30.94695 l 8.06576,0"
         style="fill:#000000;fill-rule:evenodd;stroke:none"
         id="path4792"
         inkscape:connector-curvature="0" />
    </g>
  </g>
</svg>
