<svg width="60" height="60" viewBox="0 0 60 60" fill="none" xmlns="http://www.w3.org/2000/svg">
<circle cx="30" cy="30" r="30" fill="#1272F3"/>
<path d="M41.2749 30.9949C40.9887 26.4706 37.9598 22.5827 33.6418 21.2042C33.4835 19.9527 32.4243 18.9783 31.1304 18.9783H28.8696C27.5757 18.9783 26.5165 19.9527 26.3582 21.2042C22.0402 22.5827 19.0113 26.4706 18.7251 30.9949C17.7252 31.3377 17 32.2766 17 33.3913C17 34.5709 17.8109 35.5563 18.9018 35.8427L19.6619 38.1233C20.2398 39.8568 21.856 41.0218 23.6835 41.0218H36.3165C38.144 41.0218 39.7603 39.8568 40.3384 38.1231L41.0982 35.8427C42.1891 35.5563 43 34.5709 43 33.3913C43 32.2766 42.2748 31.3377 41.2749 30.9949ZM28.0217 21.5218C28.0217 21.0543 28.4021 20.6739 28.8696 20.6739H31.1304C31.5979 20.6739 31.9783 21.0543 31.9783 21.5218V30.8478H28.0218V21.5218H28.0217ZM40.4565 34.2391H19.5435C19.076 34.2391 18.6956 33.8588 18.6956 33.3913C18.6956 32.9238 19.076 32.5434 19.5435 32.5434C26.9497 32.5434 32.9645 32.5434 40.4565 32.5434C40.924 32.5434 41.3044 32.9238 41.3044 33.3913C41.3044 33.8588 40.924 34.2391 40.4565 34.2391Z" fill="white"/>
</svg>
