<svg width="27" height="22" viewBox="0 0 27 22" fill="none" xmlns="http://www.w3.org/2000/svg">
<path d="M26.4346 8.85138C25.0006 3.72289 21.4629 0 18.0241 0C17.7479 0 17.472 0.0240413 17.2032 0.0715779C17.0507 0.0983515 16.9174 0.187961 16.8349 0.318004C16.7527 0.448866 16.7295 0.607868 16.7713 0.756488L17.4791 3.2885C17.5474 3.53301 17.7832 3.6983 18.0282 3.6871L18.0845 3.686C19.3598 3.686 21.6905 5.59731 22.8786 9.84528C22.9256 10.0138 22.9701 10.1862 23.013 10.366C21.6793 9.70595 20.0882 9.55323 18.6473 9.95456C15.3968 10.864 13.4926 14.2479 14.4013 17.4979C15.1378 20.1312 17.5603 21.9709 20.2922 21.9709C20.8488 21.9709 21.4044 21.8942 21.944 21.7431C24.0875 21.144 25.6991 19.3644 26.4821 16.7332C27.1889 14.3593 27.1711 11.4867 26.4346 8.85138Z" fill="#E1E1E1"/>
<path d="M3.84875 0.000930786C3.57309 0.000930786 3.29689 0.0244257 3.02833 0.0719624C2.87616 0.0981895 2.74257 0.188345 2.66033 0.318388C2.5781 0.449251 2.55488 0.608252 2.59641 0.756873L3.30454 3.28888C3.37284 3.5334 3.60424 3.69868 3.85367 3.68748L3.9094 3.68639C5.18469 3.68639 7.51563 5.59769 8.70377 9.84566C8.75104 10.0153 8.79557 10.1877 8.83819 10.3664C7.50388 9.70633 5.91332 9.55361 4.47246 9.95494C1.22249 10.8644 -0.682258 14.2483 0.226949 17.4982C0.963494 20.1316 3.38595 21.9713 6.11794 21.9713C6.67445 21.9713 7.23014 21.8946 7.76998 21.7435C9.91323 21.1444 11.5248 19.3647 12.3081 16.7336C13.0146 14.3597 12.9971 11.4868 12.2603 8.85122C10.8254 3.72327 7.28833 0.000930786 3.84875 0.000930786Z" fill="#E1E1E1"/>
</svg>
