<?xml version="1.0" encoding="utf-8"?>
<!-- Generator: Adobe Illustrator 14.0.0, SVG Export Plug-In . SVG Version: 6.00 Build 43363)  -->
<!DOCTYPE svg PUBLIC "-//W3C//DTD SVG 1.1//EN" "http://www.w3.org/Graphics/SVG/1.1/DTD/svg11.dtd">
<svg version="1.1" id="katman_1" xmlns="http://www.w3.org/2000/svg" xmlns:xlink="http://www.w3.org/1999/xlink" x="0px" y="0px"
	 width="150px" height="51px" viewBox="0 0 150 51" enable-background="new 0 0 150 51" xml:space="preserve">
<path fill="#055B96" d="M42.479,25.53c0,0,3.172-1.517,3.172-4.5c0-3.414-2.18-6.127-7.403-6.127H15V36.1h23.248
	c5.223,0,7.403-2.713,7.403-6.127C45.651,26.986,42.479,25.53,42.479,25.53z M38.968,30.635H21.156v-2.434h17.812V30.635
	L38.968,30.635z M38.968,22.818H21.156v-2.432h17.812V22.818L38.968,22.818z M47.624,21.102c0-3.176,3.058-6.083,5.895-6.083h21.537
	v5.486H54.24v2.313h20.815l0.002,5.482H54.24v2.312h20.815v5.486H53.519c-2.837,0-5.895-2.904-5.895-6.082V21.102z M84.914,22.802
	l12.1-7.9h9.982l-15.918,10.62l15.855,10.576h-9.984l-12.035-7.9l-0.002,7.9h-6.877V14.902h6.877L84.914,22.802z M127.945,14.902
	h-15.729c-4.221,0-7.032,2.759-7.032,5.968v9.246c0,3.211,2.812,5.967,7.032,5.967h15.729c4.222,0,7.035-2.756,7.035-5.967V20.87
	C134.98,17.661,132.167,14.902,127.945,14.902z M128.484,30.57H111.68V20.417h16.805V30.57L128.484,30.57z"/>
</svg>
