<svg width="60" height="60" viewBox="0 0 60 60" fill="none" xmlns="http://www.w3.org/2000/svg">
<circle cx="30" cy="30" r="30" fill="#8C56FA"/>
<path d="M19.2852 18.5742C18.0231 18.5742 17 19.5973 17 20.8594C17 22.1214 18.0231 23.1445 19.2852 23.1445H39.9531V18.5742H19.2852Z" fill="white"/>
<path d="M37.668 30.7617C36.4079 30.7617 35.3828 31.7868 35.3828 33.0469C35.3828 34.307 36.4079 35.332 37.668 35.332H43V30.7617H37.668ZM38.4297 33.8086H36.9062V32.2852H38.4297V33.8086Z" fill="white"/>
<path d="M37.668 29.2383H43V24.6679C42.7723 24.6679 19.2852 24.6679 19.2852 24.6679C18.4245 24.6679 17.6385 24.3701 17 23.8868C17 24.2344 17 37.0865 17 37.6172C17 39.7205 18.7051 41.4258 20.8086 41.4258H43V36.8554H37.668C35.568 36.8554 33.8594 35.1468 33.8594 33.0469C33.8594 30.9469 35.568 29.2383 37.668 29.2383Z" fill="white"/>
</svg>
