<svg width="60" height="60" viewBox="0 0 60 60" fill="none" xmlns="http://www.w3.org/2000/svg">
<circle cx="30" cy="30" r="30" fill="#F8920D"/>
<path d="M33.8663 38.3267V39.1901C33.8663 41.2932 32.1596 42.9999 30.0566 42.9999C27.9537 42.9999 26.2468 41.2932 26.2468 39.1901V38.3267H33.8663Z" fill="white"/>
<path d="M36.3047 19.2016C38.621 21.0912 39.9622 23.8951 39.9622 26.8973C39.9622 30.387 38.1793 33.5568 35.177 35.3703C34.598 35.7208 34.1713 36.2236 33.9884 36.8027H31.032L32.2359 31.7739C34.1408 30.9204 35.3905 29.0157 35.3905 26.8973V26.5772L33.1045 24.2914L31.5807 25.8153L30.0566 24.2914L28.5328 25.8153L27.009 24.2914L24.723 26.5772V26.8973C24.723 29.0157 25.9727 30.9204 27.8776 31.7739L29.0813 36.8027H26.1251C25.9422 36.2236 25.5458 35.7208 25.0126 35.4159C21.3399 33.2367 19.5112 29.1069 20.3495 24.8705C21.1114 21.0759 24.1593 17.9977 27.9232 17.2205C30.9253 16.5957 33.9732 17.3118 36.3047 19.2016Z" fill="white"/>
<path d="M30.9404 30.6309L31.3215 30.4936C32.7538 29.9908 33.7292 28.6955 33.851 27.202L33.1044 26.4553L31.5805 27.9792L30.0565 26.4553L28.5326 27.9792L27.0086 26.4553L26.262 27.202C26.384 28.6955 27.3591 29.9908 28.7917 30.4936L29.1726 30.6309L30.0565 34.3034L30.9404 30.6309Z" fill="white"/>
</svg>
