<svg width="60" height="60" viewBox="0 0 60 60" fill="none" xmlns="http://www.w3.org/2000/svg">
<circle cx="30" cy="30" r="30" fill="#64C11C"/>
<path d="M42.7099 30.5806C42.5164 30.1163 42.2842 29.7487 42.0134 29.4778L36.0938 23.5582C35.9487 23.4131 35.7745 23.2777 35.5714 23.152V18.3932C35.5714 18.0061 35.436 17.677 35.1651 17.4064C34.8945 17.1355 34.5655 17.0002 34.1787 17.0002H18.3927C18.0059 17.0002 17.677 17.1355 17.4061 17.4064C17.1353 17.6772 17 18.0061 17 18.3932V37.8932C17 38.2799 17.1353 38.6087 17.4061 38.8792C17.677 39.1502 18.0059 39.2855 18.3927 39.2855H26.2857V41.607C26.2857 41.9939 26.421 42.323 26.6919 42.5936C26.9626 42.8645 27.2915 42.9998 27.6785 42.9998H41.6073C41.994 42.9998 42.3231 42.8645 42.5937 42.5936C42.8647 42.323 42.9999 41.9939 42.9999 41.607V31.857C43 31.4702 42.9033 31.0447 42.7099 30.5806ZM35.5714 25.6619L39.9097 30H35.5714V25.6619ZM21.1785 20.7142C21.0528 20.7142 20.944 20.6683 20.8521 20.5764C20.7603 20.4844 20.7143 20.3758 20.7143 20.25V19.3215C20.7143 19.1957 20.7603 19.0868 20.8521 18.9951C20.944 18.9031 21.0528 18.8572 21.1785 18.8572H31.393C31.5186 18.8572 31.6274 18.9031 31.7193 18.9951C31.8111 19.0869 31.8574 19.1957 31.8574 19.3215V20.25C31.8574 20.3759 31.811 20.4845 31.7193 20.5764C31.6274 20.6683 31.5186 20.7142 31.3927 20.7142H21.1785ZM41.1427 41.143H28.1426V24.4285H33.7144V30.4645C33.7144 30.8512 33.8496 31.1801 34.1206 31.4509C34.3912 31.7217 34.7199 31.8569 35.107 31.8569H41.1427V41.143Z" fill="white"/>
</svg>
