<?xml version="1.0" encoding="UTF-8" standalone="no"?>
<svg
   xmlns:dc="http://purl.org/dc/elements/1.1/"
   xmlns:cc="http://creativecommons.org/ns#"
   xmlns:rdf="http://www.w3.org/1999/02/22-rdf-syntax-ns#"
   xmlns:svg="http://www.w3.org/2000/svg"
   xmlns="http://www.w3.org/2000/svg"
   viewBox="0 0 1052.3625 398.33749"
   height="398.33749"
   width="1052.3625"
   xml:space="preserve"
   version="1.1"
   id="svg2"><metadata
     id="metadata8"><rdf:RDF><cc:Work
         rdf:about=""><dc:format>image/svg+xml</dc:format><dc:type
           rdf:resource="http://purl.org/dc/dcmitype/StillImage" /></cc:Work></rdf:RDF></metadata><defs
     id="defs6"><clipPath
       id="clipPath18"
       clipPathUnits="userSpaceOnUse"><path
         id="path20"
         d="M 0,3186.7 0,0 l 8418.9,0 0,3186.7 -8418.9,0 z" /></clipPath></defs><g
     transform="matrix(1.25,0,0,-1.25,0,398.3375)"
     id="g10"><g
       transform="scale(0.1,0.1)"
       id="g12"><g
         id="g14"><g
           clip-path="url(#clipPath18)"
           id="g16"><path
             id="path22"
             style="fill:#d31937;fill-opacity:1;fill-rule:nonzero;stroke:none"
             d="m 860.367,1158.07 400.813,1009.72 395.16,-1009.72 -795.973,0 z M 862.43,3186.7 1053.7,2697.97 0,43.6289 l 417.98,0 298.958,753.1211 1080.802,0 294.73,-753.1211 850.14,0 -1230.09,3143.0711 -850.09,0" /><path
             id="path24"
             style="fill:#d31937;fill-opacity:1;fill-rule:nonzero;stroke:none"
             d="m 4101.41,1448.99 993.92,0 145.79,367.25 -1139.71,0 0,992.03 1246.53,0 150.24,378.43 -2192.71,0 0,-3143.0711 2074.9,0 150.25,378.4801 -1429.21,0 0,1026.881" /><path
             id="path26"
             style="fill:#d31937;fill-opacity:1;fill-rule:nonzero;stroke:none"
             d="m 7151.84,1448.99 524.59,0 0,-1063.568 c -62.78,-17.203 -134.63,-27.352 -210.74,-27.313 -707.17,0 -914.05,655.451 -914.05,1235.241 0,556.27 177.5,1214.92 861.15,1214.92 l 728.6,0 150.2,378.43 -964.34,0 C 6390.9,3186.7 5730.01,2539.66 5730.01,1593.35 5730.01,658.75 6364.78,0 7349.04,0 7839.38,0 8157.23,93.4414 8418.9,184.738 l 0,1631.502 -1121.29,0 -145.77,-367.25" /></g></g></g></g></svg>