<svg width="60" height="60" viewBox="0 0 60 60" fill="none" xmlns="http://www.w3.org/2000/svg">
<circle cx="30" cy="30" r="30" fill="#8C56FA"/>
<g clip-path="url(#clip0)">
<path d="M29.1387 35.1715L33.9526 30.3576C36.4088 31.1978 39.1232 30.573 40.9868 28.7095C42.9689 26.7275 43.5505 23.7758 42.4517 21.1905L42.0102 20.1458L37.5075 24.6484L35.7085 24.293L35.3531 22.494L39.8557 17.9913L38.811 17.5498C36.2257 16.451 33.274 17.0326 31.292 19.0147C29.4285 20.8783 28.8037 23.5927 29.644 26.0489L25.1962 30.4966C24.4422 31.2506 23.2249 32.1877 21.6739 32.3817C20.4781 32.5217 19.4117 33.0496 18.5607 33.9005C16.4545 36.0068 16.5039 39.3839 18.5715 41.4517C20.4424 43.3226 23.3596 43.4542 25.3363 42.0765C26.5642 41.2362 27.3614 39.9651 27.5875 38.5109C27.8246 37.089 28.3417 35.9687 29.1387 35.1715ZM20.7152 39.2865C19.821 38.3923 19.821 36.949 20.7152 36.0548C21.6092 35.1607 23.0525 35.1607 23.9467 36.0548C24.8408 36.949 24.8408 38.3923 23.9467 39.2865C23.0527 40.1806 21.6092 40.1806 20.7152 39.2865ZM22.8694 37.1321C22.5679 36.8304 22.0938 36.8304 21.7923 37.1321C21.4906 37.4336 21.4906 37.9075 21.7923 38.2092C22.0938 38.5109 22.5679 38.5109 22.8694 38.2092C23.1711 37.9075 23.1711 37.4338 22.8694 37.1321Z" fill="white"/>
</g>
<defs>
<clipPath id="clip0">
<rect x="17" y="17" width="26" height="26" fill="white"/>
</clipPath>
</defs>
</svg>
