<svg width="60" height="60" xmlns="http://www.w3.org/2000/svg">
 <g>
  <title>Layer 1</title>
  <circle id="svg_49" fill="#64C11C" r="30" cy="30" cx="30"/>
  <path id="svg_50" fill="white" d="m27.006,41.814l2.139,0l0,-8.782l-1.191,0l0,-1.758l1.191,0l0,-8.361l-2.139,0.858l0,18.043z"/>
  <path id="svg_51" fill="white" d="m36.938,25.334l-2.139,-0.858l0,17.338l2.139,0l0,-16.48z"/>
  <path id="svg_52" fill="white" d="m30.903,30.274l1.138,0l0,1.758l-1.138,0l0,8.782l2.139,0l0,-18.043l-2.139,-0.858l0,8.361z"/>
  <path id="svg_53" fill="white" d="m21.352,28.297l-2.027,0l0,-5.858c0.434,-0.452 0.701,-1.064 0.701,-1.74c0,-1.388 -1.125,-2.513 -2.513,-2.513c-1.388,0 -2.513,1.125 -2.513,2.513c0,0.676 0.267,1.289 0.701,1.74l0,19.298l3.624,0l0,-2.604l2.027,0l0,-10.836z"/>
  <path id="svg_54" fill="white" d="m42.487,18.186c-1.388,0 -2.513,1.125 -2.513,2.513c0,0.676 0.267,1.289 0.701,1.74l0,5.858l-1.979,0l0,10.837l1.979,0l0,2.603l3.624,0l0,-19.298c0.434,-0.452 0.701,-1.064 0.701,-1.74c0,-1.388 -1.125,-2.513 -2.513,-2.513z"/>
  <path id="svg_55" fill="white" d="m23.11,41.814l2.139,0l0,-17.338l-2.139,0.858l0,16.48z"/>
 </g>
</svg>