<svg width="60" height="60" xmlns="http://www.w3.org/2000/svg">
 <g>
  <circle id="svg_233" fill="#F65113" r="30" cy="30" cx="30"/>
  <g id="svg_234" clip-path="url(#clip11)">
   <path id="svg_2" fill="white" d="m43.8865,40.204l-1.7351,-6.941c-0.027,-0.108 -0.0694,-0.209 -0.1232,-0.302c0.0992,-0.275 0.1536,-0.572 0.1536,-0.881l0,-11.441c0,-1.434 -1.1671,-2.601 -2.6018,-2.601l-19.2244,0c-1.4348,0 -2.6019,1.167 -2.6019,2.601l0,11.441c0,0.309 0.0544,0.606 0.1538,0.881c-0.0539,0.093 -0.0965,0.194 -0.1235,0.302l-1.7492,6.997c-0.0871,0.348 -0.0088,0.717 0.2123,1c0.2209,0.283 0.56,0.448 0.9191,0.448l25.6031,0c0.0004,0 0.0009,0 0.0011,0c0.6442,0 1.1662,-0.522 1.1662,-1.166c-0.0001,-0.117 -0.0175,-0.231 -0.0501,-0.338zm-10.9635,-0.319c-0.0003,0 -0.0006,0.001 -0.001,0l-5.9087,0c-0.0682,0 -0.1329,-0.03 -0.1765,-0.082c-0.0438,-0.053 -0.0621,-0.121 -0.05,-0.189l0.4604,-2.555c0.0198,-0.11 0.1152,-0.189 0.2266,-0.189l4.9879,0c0.1113,0 0.2067,0.079 0.2264,0.189l0.4566,2.535c0.0054,0.019 0.0083,0.04 0.0083,0.061c0.0002,0.127 -0.1029,0.23 -0.23,0.23zm6.9862,-7.805c0,0.133 -0.0794,0.248 -0.193,0.3l-19.497,0c-0.1138,-0.052 -0.1932,-0.167 -0.1932,-0.3l0,-11.441c0,-0.181 0.1478,-0.329 0.3296,-0.329l19.2243,0c0.1815,0 0.3294,0.148 0.3294,0.329l-0.0001,11.441z"/>
  </g>
 </g>
</svg>