<svg width="60" height="60" viewBox="0 0 60 60" fill="none" xmlns="http://www.w3.org/2000/svg">
<path d="M46.4844 13.2031H13.5156C11.5771 13.2031 10 14.7802 10 16.7188V43.2812C10 45.2198 11.5771 46.7969 13.5156 46.7969H46.4844C48.4229 46.7969 50 45.2198 50 43.2812V16.7188C50 14.7802 48.4229 13.2031 46.4844 13.2031ZM13.5156 15.5469H46.4844C47.1305 15.5469 47.6562 16.0726 47.6562 16.7188V34.4531H12.3438V16.7188C12.3438 16.0726 12.8695 15.5469 13.5156 15.5469ZM46.4844 44.4531H13.5156C12.8695 44.4531 12.3438 43.9274 12.3438 43.2812V36.7969H47.6562V43.2812C47.6562 43.9274 47.1305 44.4531 46.4844 44.4531Z" fill="white"/>
<path d="M15.4214 31.4786C15.879 31.9362 16.621 31.9363 17.0787 31.4786L18.4194 30.1379C20.4993 31.5447 23.2469 31.5473 25.3306 30.1379L26.6713 31.4786C27.1289 31.9362 27.8709 31.9363 28.3286 31.4786C28.7862 31.0209 28.7862 30.279 28.3286 29.8213L26.9879 28.4806C28.3944 26.4012 28.3944 23.6487 26.9879 21.5694L28.3286 20.2287C28.7862 19.771 28.7862 19.029 28.3286 18.5714C27.871 18.1137 27.129 18.1137 26.6713 18.5714L25.3306 19.9121C23.2512 18.5056 20.4987 18.5056 18.4193 19.9121L17.0786 18.5714C16.621 18.1137 15.879 18.1137 15.4213 18.5714C14.9637 19.029 14.9637 19.771 15.4213 20.2287L16.762 21.5694C15.3555 23.6487 15.3555 26.4012 16.762 28.4807L15.4213 29.8214C14.9637 30.279 14.9637 31.0209 15.4214 31.4786ZM24.5819 22.318C26.0744 23.8106 26.0744 26.2392 24.5819 27.7318C23.0896 29.224 20.6609 29.2246 19.168 27.7318C17.6755 26.2392 17.6755 23.8106 19.168 22.318C20.6607 20.8255 23.0892 20.8255 24.5819 22.318Z" fill="white"/>
<path d="M31.6465 31.5033C32.1041 31.961 32.846 31.9611 33.3037 31.5033L34.6694 30.1378C36.7493 31.5445 39.4969 31.5471 41.5806 30.1378L42.9462 31.5033C43.4038 31.961 44.1458 31.9611 44.6035 31.5033C45.0612 31.0457 45.0612 30.3037 44.6035 29.8461L43.238 28.4805C44.6444 26.4011 44.6444 23.6486 43.238 21.5693L44.6036 20.2036C45.0612 19.746 45.0612 19.004 44.6036 18.5464C44.146 18.0887 43.404 18.0887 42.9463 18.5464L41.5807 19.9119C39.5013 18.5054 36.7488 18.5054 34.6694 19.9119L33.3037 18.5464C32.8462 18.0887 32.1041 18.0887 31.6465 18.5464C31.1888 19.004 31.1888 19.746 31.6465 20.2036L33.0121 21.5693C31.6057 23.6486 31.6057 26.4011 33.0121 28.4805L31.6466 29.8461C31.1888 30.3036 31.1888 31.0457 31.6465 31.5033V31.5033ZM40.8319 22.3179C42.3244 23.8105 42.3244 26.2391 40.8319 27.7317C39.3395 29.2239 36.9109 29.2245 35.418 27.7317C33.9255 26.2391 33.9255 23.8105 35.418 22.3179C36.9107 20.8254 39.3392 20.8254 40.8319 22.3179V22.3179Z" fill="white"/>
<path d="M41.7742 40.3961C41.6308 39.7088 40.9472 39.3063 40.2843 39.5039C39.612 39.7231 39.3311 40.3859 39.5039 40.9656C39.7225 41.6366 40.383 41.9191 40.9656 41.7461C41.5846 41.5437 41.8804 40.9638 41.7742 40.3961V40.3961Z" fill="white"/>
<path d="M36.7742 40.3961C36.6306 39.7076 35.9462 39.3066 35.2844 39.5039C34.6182 39.721 34.3294 40.38 34.5039 40.9656C34.7225 41.6362 35.383 41.9191 35.9656 41.7461C36.583 41.5442 36.8808 40.9654 36.7742 40.3961V40.3961Z" fill="white"/>
<path d="M19.375 39.4531H17.5C16.8528 39.4531 16.3281 39.9778 16.3281 40.625C16.3281 41.2722 16.8528 41.7969 17.5 41.7969H19.375C20.0222 41.7969 20.5469 41.2722 20.5469 40.625C20.5469 39.9778 20.0222 39.4531 19.375 39.4531Z" fill="white"/>
<path d="M26.25 39.4531H24.375C23.7278 39.4531 23.2031 39.9778 23.2031 40.625C23.2031 41.2722 23.7278 41.7969 24.375 41.7969H26.25C26.8972 41.7969 27.4219 41.2722 27.4219 40.625C27.4219 39.9778 26.8972 39.4531 26.25 39.4531Z" fill="white"/>
</svg>
