<svg width="60" height="60" viewBox="0 0 60 60" fill="none" xmlns="http://www.w3.org/2000/svg">
<g clip-path="url(#clip0_174_790)">
<path d="M48.8281 10H11.1719C10.5247 10 10 10.5247 10 11.1719V48.8281C10 49.4753 10.5247 50 11.1719 50H48.8281C49.4753 50 50 49.4753 50 48.8281V11.1719C50 10.5247 49.4753 10 48.8281 10ZM47.6562 47.6562H12.3438V39.9584H47.6562V47.6562ZM17.3646 32.5104C17.3646 29.6959 19.6544 27.4063 22.4688 27.4063C25.2831 27.4063 27.5729 29.696 27.5729 32.5104C27.5729 35.3248 25.2832 37.6145 22.4688 37.6145C19.6543 37.6145 17.3646 35.3248 17.3646 32.5104ZM28.1887 27.736C28.7611 27.5184 29.3716 27.4063 30 27.4063C32.8145 27.4063 35.1041 29.696 35.1041 32.5104C35.1041 35.3248 32.8145 37.6146 30 37.6146C29.3715 37.6146 28.7609 37.5023 28.1884 37.2847C29.3009 35.9605 29.9166 34.2898 29.9166 32.5105C29.9166 30.7309 29.3011 29.0602 28.1887 27.736V27.736ZM35.72 27.736C36.2923 27.5184 36.9029 27.4063 37.5312 27.4063C40.3457 27.4063 42.6354 29.696 42.6354 32.5104C42.6354 35.3248 40.3456 37.6145 37.5312 37.6145C36.9027 37.6145 36.2921 37.5023 35.7198 37.2845C36.8322 35.9604 37.448 34.2897 37.448 32.5103C37.4479 30.7309 36.8323 29.0602 35.72 27.736V27.736ZM47.6562 37.6146H42.9498C44.2073 36.2805 44.9791 34.484 44.9791 32.5105C44.9791 28.4037 41.638 25.0626 37.5312 25.0626C36.1888 25.0626 34.9019 25.4147 33.7636 26.0859C32.6584 25.4359 31.3721 25.0625 30 25.0625C28.6576 25.0625 27.3706 25.4146 26.2323 26.0858C25.1273 25.4359 23.8409 25.0625 22.4688 25.0625C18.362 25.0625 15.0209 28.4037 15.0209 32.5104C15.0209 34.484 15.7928 36.2805 17.0502 37.6145H12.3438V22.3854H47.6562V37.6146ZM47.6562 20.0416H12.3438V12.3438H47.6562V20.0416Z" fill="#FFF"/>
<path d="M41.2969 17.3646C41.9441 17.3646 42.4688 16.84 42.4688 16.1927C42.4688 15.5455 41.9441 15.0209 41.2969 15.0209C40.6497 15.0209 40.125 15.5455 40.125 16.1927C40.125 16.84 40.6497 17.3646 41.2969 17.3646Z" fill="#FFF"/>
<path d="M26.2344 17.3646C26.8816 17.3646 27.4063 16.84 27.4063 16.1927C27.4063 15.5455 26.8816 15.0209 26.2344 15.0209C25.5872 15.0209 25.0625 15.5455 25.0625 16.1927C25.0625 16.84 25.5872 17.3646 26.2344 17.3646Z" fill="#FFF"/>
<path d="M33.7657 17.3646C34.4129 17.3646 34.9376 16.84 34.9376 16.1927C34.9376 15.5455 34.4129 15.0209 33.7657 15.0209C33.1185 15.0209 32.5938 15.5455 32.5938 16.1927C32.5938 16.84 33.1185 17.3646 33.7657 17.3646Z" fill="#FFF"/>
<path d="M18.7031 17.3646C19.3503 17.3646 19.875 16.84 19.875 16.1927C19.875 15.5455 19.3503 15.0209 18.7031 15.0209C18.0559 15.0209 17.5312 15.5455 17.5312 16.1927C17.5312 16.84 18.0559 17.3646 18.7031 17.3646Z" fill="#FFF"/>
</g>
<defs>
<clipPath id="clip0_174_790">
<rect width="40" height="40" fill="white" transform="translate(10 10)"/>
</clipPath>
</defs>
</svg>
