<svg width="11" height="11" viewBox="0 0 11 11" fill="none" xmlns="http://www.w3.org/2000/svg">
<path d="M5.07078 8.55574L0.17573 3.6606C0.0624222 3.54738 -4.92822e-08 3.39624 -4.2238e-08 3.23509C-3.51938e-08 3.07394 0.0624222 2.9228 0.17573 2.80958L0.536134 2.44909C0.770977 2.21451 1.15267 2.21451 1.38715 2.44909L5.49772 6.55966L9.61285 2.44453C9.72616 2.33131 9.8772 2.2688 10.0383 2.2688C10.1995 2.2688 10.3506 2.33131 10.464 2.44453L10.8243 2.80502C10.9376 2.91833 11 3.06938 11 3.23053C11 3.39168 10.9376 3.54282 10.8243 3.65604L5.92475 8.55574C5.81108 8.66923 5.65932 8.73156 5.49799 8.7312C5.33603 8.73156 5.18436 8.66923 5.07078 8.55574Z" fill="black"/>
</svg>
