<svg width="60" height="60" viewBox="0 0 60 60" fill="none" xmlns="http://www.w3.org/2000/svg">
<mask id="path-1-outside-1" maskUnits="userSpaceOnUse" x="10" y="9" width="40" height="42" fill="black">
<rect fill="white" x="10" y="9" width="40" height="42"/>
<path d="M29.5145 45.2442C29.1886 45.5689 29.1886 46.0975 29.5145 46.4222C29.8398 46.7481 30.3672 46.7481 30.6925 46.4222C31.0184 46.0975 31.0184 45.5689 30.6925 45.2442C30.3672 44.9183 29.8398 44.9183 29.5145 45.2442Z"/>
<path d="M29.5145 41.9104C29.1886 42.2364 29.1886 42.7637 29.5145 43.0897C29.8398 43.4143 30.3672 43.4143 30.6925 43.0897C31.0184 42.7637 31.0184 42.2364 30.6925 41.9104C30.3672 41.5857 29.8398 41.5857 29.5145 41.9104Z"/>
<path d="M46.0583 40.1845L45.9167 40.143C43.8488 39.5887 43.1481 39.054 42.2277 38.705C40.0377 37.87 38.9342 37.1913 38.38 36.7067L37.9039 33.1727C39.4566 31.0731 40.6053 28.5132 40.8141 25.8325H41.7101C42.1678 25.8325 42.3668 25.5017 42.152 25.0977C42.152 25.0977 41.8968 24.6191 41.1925 23.9844V21.9226C41.1925 16.0827 36.5831 11.2963 30.9355 10.8654C30.9355 10.8544 30.9367 10.8435 30.9367 10.8337C30.9367 10.3734 30.5638 10 30.1036 10C29.6433 10 29.2704 10.3735 29.2704 10.8337C29.2704 10.8435 29.2717 10.8545 29.2717 10.8654C23.6234 11.2963 19.0146 16.0827 19.0146 21.9225L19.014 23.9843C18.3102 24.6191 18.0557 25.0976 18.0557 25.0976C17.8402 25.5016 18.0392 25.8324 18.4975 25.8324H19.3923C19.6017 28.5131 20.7498 31.073 22.3025 33.1726L21.8277 36.7066C21.2734 37.1912 20.1699 37.87 17.9788 38.7049C17.0584 39.054 16.3583 39.5887 14.2904 40.1429L14.1489 40.1844C12.2659 40.807 11 42.5525 11 44.5226V50H49.2077V44.5226C49.2076 42.5525 47.9406 40.807 46.0583 40.1845ZM20.6809 21.9225C20.6809 20.6555 20.9335 19.425 21.4322 18.2629C21.9131 17.1422 22.6004 16.1327 23.4763 15.2635C24.349 14.3969 25.3605 13.7157 26.4823 13.2384C27.6371 12.7489 28.8554 12.4999 30.1035 12.4999C31.3516 12.4999 32.5693 12.7489 33.7241 13.2384C34.8472 13.7157 35.8579 14.3969 36.732 15.2635C37.606 16.1327 38.2945 17.1422 38.7754 18.2629C39.2735 19.425 39.5261 20.6555 39.5261 21.9225V22.8112C37.7085 21.7992 34.7568 20.8337 30.1035 20.8337C25.4495 20.8337 22.4978 21.7981 20.6809 22.8112V21.9225ZM38.5313 24.1662H21.6763C22.5535 23.7023 23.5856 23.3301 24.7476 23.0554C26.3132 22.6868 28.115 22.5 30.1035 22.5C32.0909 22.5 33.8938 22.6868 35.46 23.0554C36.622 23.3301 37.6536 23.7024 38.5313 24.1662ZM21.0653 25.8325H39.1417C38.9097 28.3289 37.7061 30.9631 35.7579 33.1836C34.8008 34.2737 33.729 35.1869 32.6572 35.8217C31.7015 36.3893 30.7945 36.7018 30.1035 36.7018C29.4126 36.7018 28.5056 36.3893 27.5498 35.8217C26.478 35.1869 25.4062 34.2738 24.4491 33.1836C22.5009 30.9631 21.2973 28.3288 21.0653 25.8325ZM26.7704 48.3339H12.6663V44.5228C12.6663 43.2801 13.4604 42.1803 14.6451 41.7762L14.7384 41.7493C16.2966 41.3296 17.1573 40.917 17.8488 40.5861C18.1161 40.4579 18.3475 40.3481 18.5721 40.2626C19.8337 39.7816 21.417 39.1126 22.5528 38.2582L25.3166 41.3381C25.4813 41.5212 25.7084 41.615 25.9373 41.615C26.1302 41.615 26.3242 41.5481 26.4817 41.4125L26.7704 41.1623V48.3339ZM26.0111 39.6156L23.4952 36.8128L23.7539 34.8866C25.101 36.2781 26.5958 37.3365 27.9929 37.9029L26.0111 39.6156ZM31.771 48.3339H28.4366V39.723L30.0065 38.3668C30.0388 38.3668 30.0712 38.3681 30.1035 38.3681C30.1358 38.3681 30.1682 38.3668 30.2005 38.3668L31.771 39.723V48.3339ZM32.2142 37.9029C33.6118 37.3365 35.106 36.2781 36.4537 34.8866L36.7124 36.8128L34.1953 39.6156L32.2142 37.9029ZM47.5402 48.3339H33.4361V41.1623L33.7254 41.4125C33.8829 41.548 34.0769 41.615 34.2698 41.615C34.4981 41.615 34.7251 41.5212 34.8912 41.3381L37.6549 38.2582C38.7901 39.1127 40.3746 39.7816 41.6369 40.2626C41.8591 40.3481 42.091 40.4579 42.3583 40.5861C43.0504 40.9169 43.9098 41.3296 45.4687 41.7493L45.5626 41.7762C46.7467 42.1803 47.5402 43.2801 47.5402 44.5228V48.3339Z"/>
<path d="M30.795 19.6312L32.4619 17.1495C32.6328 16.8943 32.6498 16.5648 32.5058 16.2938C32.3606 16.0216 32.0785 15.8519 31.771 15.8519H30.0003L30.795 14.669C31.052 14.2869 30.95 13.7694 30.568 13.5118C30.1858 13.2554 29.6683 13.3579 29.4119 13.7401L27.7451 16.2206C27.5736 16.4757 27.5565 16.8053 27.7012 17.0775C27.8464 17.3485 28.129 17.5182 28.4366 17.5182H30.2066L29.4119 18.7023C29.155 19.0844 29.2569 19.6019 29.639 19.8583C29.7812 19.9535 29.943 19.9998 30.1029 19.9998C30.3708 19.9998 30.6345 19.8705 30.795 19.6312Z"/>
</mask>
<path d="M29.5145 45.2442C29.1886 45.5689 29.1886 46.0975 29.5145 46.4222C29.8398 46.7481 30.3672 46.7481 30.6925 46.4222C31.0184 46.0975 31.0184 45.5689 30.6925 45.2442C30.3672 44.9183 29.8398 44.9183 29.5145 45.2442Z" fill="white"/>
<path d="M29.5145 41.9104C29.1886 42.2364 29.1886 42.7637 29.5145 43.0897C29.8398 43.4143 30.3672 43.4143 30.6925 43.0897C31.0184 42.7637 31.0184 42.2364 30.6925 41.9104C30.3672 41.5857 29.8398 41.5857 29.5145 41.9104Z" fill="white"/>
<path d="M46.0583 40.1845L45.9167 40.143C43.8488 39.5887 43.1481 39.054 42.2277 38.705C40.0377 37.87 38.9342 37.1913 38.38 36.7067L37.9039 33.1727C39.4566 31.0731 40.6053 28.5132 40.8141 25.8325H41.7101C42.1678 25.8325 42.3668 25.5017 42.152 25.0977C42.152 25.0977 41.8968 24.6191 41.1925 23.9844V21.9226C41.1925 16.0827 36.5831 11.2963 30.9355 10.8654C30.9355 10.8544 30.9367 10.8435 30.9367 10.8337C30.9367 10.3734 30.5638 10 30.1036 10C29.6433 10 29.2704 10.3735 29.2704 10.8337C29.2704 10.8435 29.2717 10.8545 29.2717 10.8654C23.6234 11.2963 19.0146 16.0827 19.0146 21.9225L19.014 23.9843C18.3102 24.6191 18.0557 25.0976 18.0557 25.0976C17.8402 25.5016 18.0392 25.8324 18.4975 25.8324H19.3923C19.6017 28.5131 20.7498 31.073 22.3025 33.1726L21.8277 36.7066C21.2734 37.1912 20.1699 37.87 17.9788 38.7049C17.0584 39.054 16.3583 39.5887 14.2904 40.1429L14.1489 40.1844C12.2659 40.807 11 42.5525 11 44.5226V50H49.2077V44.5226C49.2076 42.5525 47.9406 40.807 46.0583 40.1845ZM20.6809 21.9225C20.6809 20.6555 20.9335 19.425 21.4322 18.2629C21.9131 17.1422 22.6004 16.1327 23.4763 15.2635C24.349 14.3969 25.3605 13.7157 26.4823 13.2384C27.6371 12.7489 28.8554 12.4999 30.1035 12.4999C31.3516 12.4999 32.5693 12.7489 33.7241 13.2384C34.8472 13.7157 35.8579 14.3969 36.732 15.2635C37.606 16.1327 38.2945 17.1422 38.7754 18.2629C39.2735 19.425 39.5261 20.6555 39.5261 21.9225V22.8112C37.7085 21.7992 34.7568 20.8337 30.1035 20.8337C25.4495 20.8337 22.4978 21.7981 20.6809 22.8112V21.9225ZM38.5313 24.1662H21.6763C22.5535 23.7023 23.5856 23.3301 24.7476 23.0554C26.3132 22.6868 28.115 22.5 30.1035 22.5C32.0909 22.5 33.8938 22.6868 35.46 23.0554C36.622 23.3301 37.6536 23.7024 38.5313 24.1662ZM21.0653 25.8325H39.1417C38.9097 28.3289 37.7061 30.9631 35.7579 33.1836C34.8008 34.2737 33.729 35.1869 32.6572 35.8217C31.7015 36.3893 30.7945 36.7018 30.1035 36.7018C29.4126 36.7018 28.5056 36.3893 27.5498 35.8217C26.478 35.1869 25.4062 34.2738 24.4491 33.1836C22.5009 30.9631 21.2973 28.3288 21.0653 25.8325ZM26.7704 48.3339H12.6663V44.5228C12.6663 43.2801 13.4604 42.1803 14.6451 41.7762L14.7384 41.7493C16.2966 41.3296 17.1573 40.917 17.8488 40.5861C18.1161 40.4579 18.3475 40.3481 18.5721 40.2626C19.8337 39.7816 21.417 39.1126 22.5528 38.2582L25.3166 41.3381C25.4813 41.5212 25.7084 41.615 25.9373 41.615C26.1302 41.615 26.3242 41.5481 26.4817 41.4125L26.7704 41.1623V48.3339ZM26.0111 39.6156L23.4952 36.8128L23.7539 34.8866C25.101 36.2781 26.5958 37.3365 27.9929 37.9029L26.0111 39.6156ZM31.771 48.3339H28.4366V39.723L30.0065 38.3668C30.0388 38.3668 30.0712 38.3681 30.1035 38.3681C30.1358 38.3681 30.1682 38.3668 30.2005 38.3668L31.771 39.723V48.3339ZM32.2142 37.9029C33.6118 37.3365 35.106 36.2781 36.4537 34.8866L36.7124 36.8128L34.1953 39.6156L32.2142 37.9029ZM47.5402 48.3339H33.4361V41.1623L33.7254 41.4125C33.8829 41.548 34.0769 41.615 34.2698 41.615C34.4981 41.615 34.7251 41.5212 34.8912 41.3381L37.6549 38.2582C38.7901 39.1127 40.3746 39.7816 41.6369 40.2626C41.8591 40.3481 42.091 40.4579 42.3583 40.5861C43.0504 40.9169 43.9098 41.3296 45.4687 41.7493L45.5626 41.7762C46.7467 42.1803 47.5402 43.2801 47.5402 44.5228V48.3339Z" fill="white"/>
<path d="M30.795 19.6312L32.4619 17.1495C32.6328 16.8943 32.6498 16.5648 32.5058 16.2938C32.3606 16.0216 32.0785 15.8519 31.771 15.8519H30.0003L30.795 14.669C31.052 14.2869 30.95 13.7694 30.568 13.5118C30.1858 13.2554 29.6683 13.3579 29.4119 13.7401L27.7451 16.2206C27.5736 16.4757 27.5565 16.8053 27.7012 17.0775C27.8464 17.3485 28.129 17.5182 28.4366 17.5182H30.2066L29.4119 18.7023C29.155 19.0844 29.2569 19.6019 29.639 19.8583C29.7812 19.9535 29.943 19.9998 30.1029 19.9998C30.3708 19.9998 30.6345 19.8705 30.795 19.6312Z" fill="white"/>
<path d="M29.5145 45.2442C29.1886 45.5689 29.1886 46.0975 29.5145 46.4222C29.8398 46.7481 30.3672 46.7481 30.6925 46.4222C31.0184 46.0975 31.0184 45.5689 30.6925 45.2442C30.3672 44.9183 29.8398 44.9183 29.5145 45.2442Z" stroke="white" stroke-width="0.6" mask="url(#path-1-outside-1)"/>
<path d="M29.5145 41.9104C29.1886 42.2364 29.1886 42.7637 29.5145 43.0897C29.8398 43.4143 30.3672 43.4143 30.6925 43.0897C31.0184 42.7637 31.0184 42.2364 30.6925 41.9104C30.3672 41.5857 29.8398 41.5857 29.5145 41.9104Z" stroke="white" stroke-width="0.6" mask="url(#path-1-outside-1)"/>
<path d="M46.0583 40.1845L45.9167 40.143C43.8488 39.5887 43.1481 39.054 42.2277 38.705C40.0377 37.87 38.9342 37.1913 38.38 36.7067L37.9039 33.1727C39.4566 31.0731 40.6053 28.5132 40.8141 25.8325H41.7101C42.1678 25.8325 42.3668 25.5017 42.152 25.0977C42.152 25.0977 41.8968 24.6191 41.1925 23.9844V21.9226C41.1925 16.0827 36.5831 11.2963 30.9355 10.8654C30.9355 10.8544 30.9367 10.8435 30.9367 10.8337C30.9367 10.3734 30.5638 10 30.1036 10C29.6433 10 29.2704 10.3735 29.2704 10.8337C29.2704 10.8435 29.2717 10.8545 29.2717 10.8654C23.6234 11.2963 19.0146 16.0827 19.0146 21.9225L19.014 23.9843C18.3102 24.6191 18.0557 25.0976 18.0557 25.0976C17.8402 25.5016 18.0392 25.8324 18.4975 25.8324H19.3923C19.6017 28.5131 20.7498 31.073 22.3025 33.1726L21.8277 36.7066C21.2734 37.1912 20.1699 37.87 17.9788 38.7049C17.0584 39.054 16.3583 39.5887 14.2904 40.1429L14.1489 40.1844C12.2659 40.807 11 42.5525 11 44.5226V50H49.2077V44.5226C49.2076 42.5525 47.9406 40.807 46.0583 40.1845ZM20.6809 21.9225C20.6809 20.6555 20.9335 19.425 21.4322 18.2629C21.9131 17.1422 22.6004 16.1327 23.4763 15.2635C24.349 14.3969 25.3605 13.7157 26.4823 13.2384C27.6371 12.7489 28.8554 12.4999 30.1035 12.4999C31.3516 12.4999 32.5693 12.7489 33.7241 13.2384C34.8472 13.7157 35.8579 14.3969 36.732 15.2635C37.606 16.1327 38.2945 17.1422 38.7754 18.2629C39.2735 19.425 39.5261 20.6555 39.5261 21.9225V22.8112C37.7085 21.7992 34.7568 20.8337 30.1035 20.8337C25.4495 20.8337 22.4978 21.7981 20.6809 22.8112V21.9225ZM38.5313 24.1662H21.6763C22.5535 23.7023 23.5856 23.3301 24.7476 23.0554C26.3132 22.6868 28.115 22.5 30.1035 22.5C32.0909 22.5 33.8938 22.6868 35.46 23.0554C36.622 23.3301 37.6536 23.7024 38.5313 24.1662ZM21.0653 25.8325H39.1417C38.9097 28.3289 37.7061 30.9631 35.7579 33.1836C34.8008 34.2737 33.729 35.1869 32.6572 35.8217C31.7015 36.3893 30.7945 36.7018 30.1035 36.7018C29.4126 36.7018 28.5056 36.3893 27.5498 35.8217C26.478 35.1869 25.4062 34.2738 24.4491 33.1836C22.5009 30.9631 21.2973 28.3288 21.0653 25.8325ZM26.7704 48.3339H12.6663V44.5228C12.6663 43.2801 13.4604 42.1803 14.6451 41.7762L14.7384 41.7493C16.2966 41.3296 17.1573 40.917 17.8488 40.5861C18.1161 40.4579 18.3475 40.3481 18.5721 40.2626C19.8337 39.7816 21.417 39.1126 22.5528 38.2582L25.3166 41.3381C25.4813 41.5212 25.7084 41.615 25.9373 41.615C26.1302 41.615 26.3242 41.5481 26.4817 41.4125L26.7704 41.1623V48.3339ZM26.0111 39.6156L23.4952 36.8128L23.7539 34.8866C25.101 36.2781 26.5958 37.3365 27.9929 37.9029L26.0111 39.6156ZM31.771 48.3339H28.4366V39.723L30.0065 38.3668C30.0388 38.3668 30.0712 38.3681 30.1035 38.3681C30.1358 38.3681 30.1682 38.3668 30.2005 38.3668L31.771 39.723V48.3339ZM32.2142 37.9029C33.6118 37.3365 35.106 36.2781 36.4537 34.8866L36.7124 36.8128L34.1953 39.6156L32.2142 37.9029ZM47.5402 48.3339H33.4361V41.1623L33.7254 41.4125C33.8829 41.548 34.0769 41.615 34.2698 41.615C34.4981 41.615 34.7251 41.5212 34.8912 41.3381L37.6549 38.2582C38.7901 39.1127 40.3746 39.7816 41.6369 40.2626C41.8591 40.3481 42.091 40.4579 42.3583 40.5861C43.0504 40.9169 43.9098 41.3296 45.4687 41.7493L45.5626 41.7762C46.7467 42.1803 47.5402 43.2801 47.5402 44.5228V48.3339Z" stroke="white" stroke-width="0.6" mask="url(#path-1-outside-1)"/>
<path d="M30.795 19.6312L32.4619 17.1495C32.6328 16.8943 32.6498 16.5648 32.5058 16.2938C32.3606 16.0216 32.0785 15.8519 31.771 15.8519H30.0003L30.795 14.669C31.052 14.2869 30.95 13.7694 30.568 13.5118C30.1858 13.2554 29.6683 13.3579 29.4119 13.7401L27.7451 16.2206C27.5736 16.4757 27.5565 16.8053 27.7012 17.0775C27.8464 17.3485 28.129 17.5182 28.4366 17.5182H30.2066L29.4119 18.7023C29.155 19.0844 29.2569 19.6019 29.639 19.8583C29.7812 19.9535 29.943 19.9998 30.1029 19.9998C30.3708 19.9998 30.6345 19.8705 30.795 19.6312Z" stroke="white" stroke-width="0.6" mask="url(#path-1-outside-1)"/>
</svg>
