<svg width="94" height="21" viewBox="0 0 94 21" fill="none" xmlns="http://www.w3.org/2000/svg">
<path d="M13.504 18.488C12.1413 19.7387 10.3773 20.364 8.212 20.364C6.04667 20.364 4.27333 19.7387 2.892 18.488C1.52933 17.2187 0.848 15.5293 0.848 13.42V0.399999H3.452V13.308C3.452 14.6893 3.86267 15.7907 4.684 16.612C5.50533 17.4147 6.68133 17.816 8.212 17.816C9.74267 17.816 10.9187 17.4147 11.74 16.612C12.5613 15.7907 12.972 14.6893 12.972 13.308V0.399999H15.548V13.42C15.548 15.5293 14.8667 17.2187 13.504 18.488ZM21.241 9.78C21.241 10.3213 21.5116 10.76 22.053 11.096C22.5943 11.4133 23.2476 11.6747 24.013 11.88C24.7783 12.0667 25.5436 12.2907 26.309 12.552C27.0743 12.7947 27.7276 13.224 28.269 13.84C28.8103 14.4373 29.081 15.212 29.081 16.164C29.081 17.4333 28.5863 18.4507 27.597 19.216C26.6263 19.9813 25.3756 20.364 23.845 20.364C22.4823 20.364 21.3156 20.0653 20.345 19.468C19.3743 18.8707 18.6836 18.0773 18.273 17.088L20.373 15.884C20.597 16.556 21.017 17.088 21.633 17.48C22.249 17.872 22.9863 18.068 23.845 18.068C24.6476 18.068 25.3103 17.9187 25.833 17.62C26.3556 17.3027 26.617 16.8173 26.617 16.164C26.617 15.6227 26.3463 15.1933 25.805 14.876C25.2636 14.54 24.6103 14.2787 23.845 14.092C23.0796 13.8867 22.3143 13.6533 21.549 13.392C20.7836 13.1307 20.1303 12.7013 19.589 12.104C19.0476 11.5067 18.777 10.7413 18.777 9.808C18.777 8.59467 19.2436 7.596 20.177 6.812C21.129 6.028 22.3143 5.636 23.733 5.636C24.8716 5.636 25.8796 5.89733 26.757 6.42C27.653 6.924 28.325 7.63333 28.773 8.548L26.729 9.696C26.225 8.50133 25.2263 7.904 23.733 7.904C23.0423 7.904 22.4543 8.072 21.969 8.408C21.4836 8.72533 21.241 9.18267 21.241 9.78ZM39.0343 8.352H35.3103V15.94C35.3103 16.6307 35.441 17.1253 35.7023 17.424C35.9823 17.704 36.4023 17.8533 36.9623 17.872C37.5223 17.872 38.213 17.8533 39.0343 17.816V20C36.9063 20.28 35.3476 20.112 34.3583 19.496C33.369 18.8613 32.8743 17.676 32.8743 15.94V8.352H30.1023V6H32.8743V2.808L35.3103 2.08V6H39.0343V8.352ZM42.9154 14.12C43.158 15.3707 43.7274 16.3413 44.6234 17.032C45.538 17.7227 46.658 18.068 47.9834 18.068C49.8314 18.068 51.1754 17.3867 52.0154 16.024L54.0874 17.2C52.7247 19.3093 50.6714 20.364 47.9274 20.364C45.706 20.364 43.8954 19.6733 42.4954 18.292C41.114 16.892 40.4234 15.128 40.4234 13C40.4234 10.8907 41.1047 9.136 42.4674 7.736C43.83 6.336 45.594 5.636 47.7594 5.636C49.8127 5.636 51.4834 6.364 52.7714 7.82C54.078 9.25733 54.7314 10.9933 54.7314 13.028C54.7314 13.3827 54.7034 13.7467 54.6474 14.12H42.9154ZM47.7594 7.932C46.4527 7.932 45.37 8.30533 44.5114 9.052C43.6527 9.78 43.1207 10.76 42.9154 11.992H52.2674C52.062 10.6667 51.5394 9.65867 50.6994 8.968C49.8594 8.27733 48.8794 7.932 47.7594 7.932ZM59.9676 8.352C60.7703 6.616 62.2263 5.748 64.3356 5.748V8.296C63.1409 8.24 62.1143 8.55733 61.2556 9.248C60.3969 9.93867 59.9676 11.0493 59.9676 12.58V20H57.5316V6H59.9676V8.352ZM78.5631 20H75.5391L69.1551 13.364V20H66.7191V0.399999H69.1551V12.188L75.2031 6H78.3391L71.6471 12.776L78.5631 20ZM91.1353 6H93.5713V20H91.1353V17.592C89.922 19.44 88.158 20.364 85.8433 20.364C83.8833 20.364 82.2126 19.6547 80.8313 18.236C79.45 16.7987 78.7593 15.0533 78.7593 13C78.7593 10.9467 79.45 9.21067 80.8313 7.792C82.2126 6.35467 83.8833 5.636 85.8433 5.636C88.158 5.636 89.922 6.56 91.1353 8.408V6ZM86.1513 18.012C87.57 18.012 88.7553 17.536 89.7073 16.584C90.6593 15.6133 91.1353 14.4187 91.1353 13C91.1353 11.5813 90.6593 10.396 89.7073 9.444C88.7553 8.47333 87.57 7.988 86.1513 7.988C84.7513 7.988 83.5753 8.47333 82.6233 9.444C81.6713 10.396 81.1953 11.5813 81.1953 13C81.1953 14.4187 81.6713 15.6133 82.6233 16.584C83.5753 17.536 84.7513 18.012 86.1513 18.012Z" fill="black"/>
</svg>
