<svg xmlns="http://www.w3.org/2000/svg" width="171" height="51" viewBox="0 0 171 51"><path fill="#BFCF00" d="M51 25.5C51 39.6 39.6 51 25.5 51S0 39.6 0 25.5 11.4 0 25.5 0 51 11.4 51 25.5"></path><path d="M0 25.5C0 40.3 10.4 51 24.8 51c4.2 0 8.9-.4 14.3-3.9l1.5-1.1V25.2H28.4v15.3c-1.4.5-2 .6-3.5.6-7.6 0-12.4-6.5-12.4-15.8 0-9.4 4.9-15.6 13.4-15.6 2.9 0 4.8.6 8 2.4l1.5.8L40 4.5l-.4-.3c-1.6-1.1-3-1.8-4.3-2.3C31.7.4 28.7 0 25 0 10.5 0 0 10.7 0 25.5M51.7 30c0-2.1.9-3.5 5.9-5.1 0 0 .1 0 .3-.1-.1 2-.3 3.2-.9 4.4-.8 1.9-2.3 3.3-3.5 3.3-1 0-1.8-1.1-1.8-2.5m-7.5-17.1l-1.1.9 4 6.1 1.5-1.3c2-1.7 3.8-2.5 5.6-2.5 1.7 0 2.6.5 3.2 1.8-.5.2-2.8.9-2.8.9-3.7 1.1-5.8 1.8-7.4 2.8-3.6 2.1-5.5 5.3-5.5 9.2 0 5.5 4.1 9.7 9.2 9.7 2.3 0 4.3-.9 7.1-3 .1.4.2.8.4 1.3l.4 1.1h10.9l-.8-2.1c-.9-2.3-1-3.5-1-8.1v-7.3c0-5.1-.2-6.7-1.8-8.9-2.1-3-5.8-4.6-10.5-4.6-4.4 0-8.1 1.3-11.4 4z" fill="#202f1c"></path><path d="M94.9 9.5H70.1v7.4h12.3c-.6.9-13.3 18.9-13.3 18.9V40h26.4v-7.6H82.8c.6-.9 12.4-18.2 12.4-18.2V9.5h-.3z" fill="none" stroke-width="2" stroke="#fff"></path><path d="M94.9 9.5H70.1v7.4h12.3c-.6.9-13.3 18.9-13.3 18.9V40h26.4v-7.6H82.8c.6-.9 12.4-18.2 12.4-18.2V9.5h-.3" fill="#202f1c"></path><path d="M108.8 15.9c2 0 3.1 1.4 3.3 4.2h-7.2c.6-2.6 2-4.2 3.9-4.2zm-10.6-2.6c-2.7 2.8-4.1 6.7-4.1 11.1 0 4.7 1.7 8.9 4.8 12 2.8 2.8 6.3 4.2 10.6 4.2 3.8 0 7.2-1 11.1-3.3l1.3-.8-3.5-6.7-1.6 1c-2.2 1.4-4 2-5.9 2-3.2 0-5.4-2.2-6-5.8h16.8v-3c0-9.5-4.8-15.1-12.7-15.1-4.3 0-8.1 1.5-10.8 4.4z" fill="none" stroke-width="2" stroke="#fff"></path><path d="M108.8 15.9c2 0 3.1 1.4 3.3 4.2h-7.2c.6-2.6 2-4.2 3.9-4.2m-10.6-2.6c-2.7 2.8-4.1 6.7-4.1 11.1 0 4.7 1.7 8.9 4.8 12 2.8 2.8 6.3 4.2 10.6 4.2 3.8 0 7.2-1 11.1-3.3l1.3-.8-3.5-6.7-1.6 1c-2.2 1.4-4 2-5.9 2-3.2 0-5.4-2.2-6-5.8h16.8v-3c0-9.5-4.8-15.1-12.7-15.1-4.3 0-8.1 1.5-10.8 4.4z" fill="#202f1c"></path><path d="M134.4 1l-9.8 2.3v6.2H121v6.9h3.6v12.4c0 4.3.2 5.9 1.5 8 1.7 2.5 4.5 3.8 8 3.8 3 0 5.6-.6 7.9-1.9l1.2-.7-2.3-6.6-1.8.9c-1 .5-1.7.7-2.5.7s-1.9 0-1.9-5.7v-11h6.9V9.5h-6.9V.9l-.3.1z" fill="none" stroke-width="2" stroke="#fff"></path><path d="M134.4 1l-9.8 2.3v6.2H121v6.9h3.6v12.4c0 4.3.2 5.9 1.5 8 1.7 2.5 4.5 3.8 8 3.8 3 0 5.6-.6 7.9-1.9l1.2-.7-2.3-6.6-1.8.9c-1 .5-1.7.7-2.5.7s-1.9 0-1.9-5.7v-11h6.9V9.5h-6.9V.9l-.3.1" fill="#202f1c"></path><path d="M152.4 30c0-2.1.9-3.5 5.9-5.1 0 0 .1 0 .3-.1-.1 2-.3 3.2-.8 4.4-.8 1.9-2.3 3.3-3.5 3.3-1 0-1.9-1.1-1.9-2.5zM145 12.9l-1.1.9 4 6.1 1.5-1.3c2-1.7 3.8-2.5 5.6-2.5 1.7 0 2.6.5 3.2 1.8-.5.2-2.8.9-2.8.9-3.7 1.1-5.7 1.8-7.3 2.8-3.6 2.1-5.5 5.3-5.5 9.2 0 5.5 4.1 9.7 9.2 9.7 2.3 0 4.3-.9 7.1-3 .1.4.2.8.4 1.3 0 .1.1.3.3.9l.1.2h10.9l-.8-2.1c-.9-2.3-1-3.5-1-8.1v-7.3c0-5.1-.2-6.7-1.8-8.9-2.1-3-5.8-4.6-10.5-4.6-4.5 0-8.2 1.3-11.5 4z" fill="none" stroke-width="2" stroke="#fff"></path><path d="M152.4 30c0-2.1.9-3.5 5.9-5.1 0 0 .1 0 .3-.1-.1 2-.3 3.2-.8 4.4-.8 1.9-2.3 3.3-3.5 3.3-1 0-1.9-1.1-1.9-2.5M145 12.9l-1.1.9 4 6.1 1.5-1.3c2-1.7 3.8-2.5 5.6-2.5 1.7 0 2.6.5 3.2 1.8-.5.2-2.8.9-2.8.9-3.7 1.1-5.7 1.8-7.3 2.8-3.6 2.1-5.5 5.3-5.5 9.2 0 5.5 4.1 9.7 9.2 9.7 2.3 0 4.3-.9 7.1-3 .1.4.2.8.4 1.3 0 .1.1.3.3.9l.1.2h10.9l-.8-2.1c-.9-2.3-1-3.5-1-8.1v-7.3c0-5.1-.2-6.7-1.8-8.9-2.1-3-5.8-4.6-10.5-4.6-4.5 0-8.2 1.3-11.5 4z" fill="#202f1c"></path><path d="M54.8 48.6v.4h-1.9v-.2-.2l-1.4-5.8c0-.2-.1-.2-.1-.3h2.3v.4l.7 3.4.9-3.4v-.2-.2h1.9V42.8l.8 3.4.8-3.4v-.2-.2h1.1c-.1.1-.1.2-.2.3l-1.4 5.8V48.8h-2v-.2-.2l-.7-3.4-.8 3.6z" fill="none" stroke-width="2" stroke="#fff"></path><path d="M54.8 48.6v.4h-1.9v-.2-.2l-1.4-5.8c0-.2-.1-.2-.1-.3h2.3v.4l.7 3.4.9-3.4v-.2-.2h1.9V42.8l.8 3.4.8-3.4v-.2-.2h1.1c-.1.1-.1.2-.2.3l-1.4 5.8V48.8h-2v-.2-.2l-.7-3.4-.8 3.6" fill="#202f1c"></path><path d="M68.3 45.5c.4 0 .6-.3.6-1s-.2-1.1-.5-1.1h-.2v2.1h.1zm-.2 3.2c0 .1 0 .2.1.3h-2.3c.1-.1.1-.1.1-.3v-5.8c0-.1 0-.2-.1-.3h3.2c1.2 0 1.9.7 1.9 1.8 0 .8-.3 1.2-1 1.6l1.2 2.7c.1.2.1.2.2.3h-2.5c0-.1 0-.2-.1-.3l-.8-2.5v2.5z" fill="none" stroke-width="2" stroke="#fff"></path><path d="M68.3 45.5c.4 0 .6-.3.6-1s-.2-1.1-.5-1.1h-.2v2.1h.1m-.2 3.2c0 .1 0 .2.1.3h-2.3c.1-.1.1-.1.1-.3v-5.8c0-.1 0-.2-.1-.3h3.2c1.2 0 1.9.7 1.9 1.8 0 .8-.3 1.2-1 1.6l1.2 2.7c.1.2.1.2.2.3h-2.5c0-.1 0-.2-.1-.3l-.8-2.5v2.5z" fill="#202f1c"></path><path d="M79.6 45.8c0 1.7.3 2.4 1.1 2.4s1.1-.7 1.1-2.4c0-1.8-.3-2.5-1.2-2.5-.7 0-1 .8-1 2.5zm3.4-2.7c.7.5 1.1 1.5 1.1 2.7 0 2.2-1.2 3.3-3.4 3.3-1.1 0-1.9-.2-2.4-.8-.6-.6-.9-1.4-.9-2.5 0-2.2 1.2-3.3 3.4-3.3.8-.1 1.6.2 2.2.6z" fill="none" stroke-width="2" stroke="#fff"></path><path d="M79.6 45.8c0 1.7.3 2.4 1.1 2.4s1.1-.7 1.1-2.4c0-1.8-.3-2.5-1.2-2.5-.7 0-1 .8-1 2.5m3.4-2.7c.7.5 1.1 1.5 1.1 2.7 0 2.2-1.2 3.3-3.4 3.3-1.1 0-1.9-.2-2.4-.8-.6-.6-.9-1.4-.9-2.5 0-2.2 1.2-3.3 3.4-3.3.8-.1 1.6.2 2.2.6z" fill="#202f1c"></path><path d="M95.3 44.1c-.6-.5-1.1-.7-1.6-.7-.9 0-1.4.9-1.4 2.3 0 .9.2 1.4.5 1.8.2.3.6.5 1 .5.5 0 .9-.2 1.5-.7v1.3c-.7.3-1.2.3-2 .3-2.2 0-3.3-1.1-3.3-3.4 0-1.1.3-1.8.9-2.4.6-.6 1.4-.9 2.6-.9.7 0 1.2.1 1.8.3v1.6z" fill="none" stroke-width="2" stroke="#fff"></path><path d="M95.3 44.1c-.6-.5-1.1-.7-1.6-.7-.9 0-1.4.9-1.4 2.3 0 .9.2 1.4.5 1.8.2.3.6.5 1 .5.5 0 .9-.2 1.5-.7v1.3c-.7.3-1.2.3-2 .3-2.2 0-3.3-1.1-3.3-3.4 0-1.1.3-1.8.9-2.4.6-.6 1.4-.9 2.6-.9.7 0 1.2.1 1.8.3v1.6" fill="#202f1c"></path><path d="M102.4 47.3l-.5-.8.9-.6v-3c0-.2 0-.2-.1-.3h2.3c-.1.1-.1.2-.1.3v1.6l.9-.6.5.8-1.5 1V48h1.3c.3 0 .3 0 .4-.1v1h-4c.1-.1.1-.2.1-.3V47l-.2.3z" fill="none" stroke-width="2" stroke="#fff"></path><path d="M102.4 47.3l-.5-.8.9-.6v-3c0-.2 0-.2-.1-.3h2.3c-.1.1-.1.2-.1.3v1.6l.9-.6.5.8-1.5 1V48h1.3c.3 0 .3 0 .4-.1v1h-4c.1-.1.1-.2.1-.3V47l-.2.3" fill="#202f1c"></path><path d="M115.8 46.4l-.6-1.9-.6 1.9h1.2zm-1.9 2.3c0 .1-.1.2-.1.2v.1h-1.2c.1-.1.1-.2.2-.3l2-5.8c0-.1.1-.2.1-.2v-.1h1.8c0 .1 0 .2.1.3l2 5.8c.1.2.1.2.2.3h-2.4v-.1c0-.1 0-.1-.1-.2l-.4-1.3h-1.8l-.4 1.3z" fill="none" stroke-width="2" stroke="#fff"></path><path d="M115.8 46.4l-.6-1.9-.6 1.9h1.2m-1.9 2.3c0 .1-.1.2-.1.2v.1h-1.2c.1-.1.1-.2.2-.3l2-5.8c0-.1.1-.2.1-.2v-.1h1.8c0 .1 0 .2.1.3l2 5.8c.1.2.1.2.2.3h-2.4v-.1c0-.1 0-.1-.1-.2l-.4-1.3h-1.8l-.4 1.3z" fill="#202f1c"></path><path d="M127.8 48.6v.4h-1.9v-.2-.2l-1.4-5.8c-.1-.2-.1-.2-.1-.3h2.3v.4l.7 3.4.9-3.4v-.2-.2h1.9V42.8l.8 3.4.8-3.4v-.2-.2h1.1c-.1.1-.1.2-.1.3l-1.4 5.8V48.8h-2v-.2-.2l-.7-3.4-.9 3.6z" fill="none" stroke-width="2" stroke="#fff"></path><path d="M127.8 48.6v.4h-1.9v-.2-.2l-1.4-5.8c-.1-.2-.1-.2-.1-.3h2.3v.4l.7 3.4.9-3.4v-.2-.2h1.9V42.8l.8 3.4.8-3.4v-.2-.2h1.1c-.1.1-.1.2-.1.3l-1.4 5.8V48.8h-2v-.2-.2l-.7-3.4-.9 3.6" fill="#202f1c"></path><path d="M139.2 47.3c.8.6 1.1.8 1.6.8s.8-.3.8-.6c0-.2-.1-.4-.3-.5-.1 0-.3-.1-.9-.4-.6-.3-1-.5-1.2-.9-.2-.3-.3-.6-.3-1 0-.7.3-1.4.9-1.8.4-.2 1-.4 1.6-.4.7 0 1.1.1 1.8.4L143 44c-.6-.5-1-.7-1.5-.7-.3 0-.6.2-.6.5s.1.4 1.2.9c1 .4 1.5.9 1.5 1.9 0 .9-.3 1.6-.9 2-.4.3-1 .4-1.7.4-.8 0-1.3-.1-2.1-.5l.3-1.2z" fill="none" stroke-width="2" stroke="#fff"></path><path d="M139.2 47.3c.8.6 1.1.8 1.6.8s.8-.3.8-.6c0-.2-.1-.4-.3-.5-.1 0-.3-.1-.9-.4-.6-.3-1-.5-1.2-.9-.2-.3-.3-.6-.3-1 0-.7.3-1.4.9-1.8.4-.2 1-.4 1.6-.4.7 0 1.1.1 1.8.4L143 44c-.6-.5-1-.7-1.5-.7-.3 0-.6.2-.6.5s.1.4 1.2.9c1 .4 1.5.9 1.5 1.9 0 .9-.3 1.6-.9 2-.4.3-1 .4-1.7.4-.8 0-1.3-.1-2.1-.5l.3-1.2" fill="#202f1c"></path><path d="M151.8 48.7c0 .1 0 .2.1.3h-2.3c.1-.1.1-.2.1-.3v-5.8c0-.2 0-.2-.1-.3h2.3c-.1.1-.1.2-.1.3v2.6l1.4-2.6c.1-.1.1-.2.1-.3h1.6l-.3.3-1.3 2.3 1.6 3.5c.1.2.1.2.2.3h-2.5c0-.1 0-.2-.1-.3l-.9-2.3v2.3z" fill="none" stroke-width="2" stroke="#fff"></path><path d="M151.8 48.7c0 .1 0 .2.1.3h-2.3c.1-.1.1-.2.1-.3v-5.8c0-.2 0-.2-.1-.3h2.3c-.1.1-.1.2-.1.3v2.6l1.4-2.6c.1-.1.1-.2.1-.3h1.6l-.3.3-1.3 2.3 1.6 3.5c.1.2.1.2.2.3h-2.5c0-.1 0-.2-.1-.3l-.9-2.3v2.3" fill="#202f1c"></path><path d="M164.3 46.4l-.6-1.9-.6 1.9h1.2zm-1.9 2.3c0 .1-.1.2-.1.2v.1h-1.2c.1-.1.1-.2.2-.3l2-5.8c0-.1.1-.2.1-.2v-.1h1.8c0 .1 0 .2.1.3l2 5.8c.1.2.1.2.2.3h-2.4v-.1c0-.1 0-.1-.1-.2l-.4-1.3h-1.8l-.4 1.3z" fill="none" stroke-width="2" stroke="#fff"></path><path d="M164.3 46.4l-.6-1.9-.6 1.9h1.2m-1.9 2.3c0 .1-.1.2-.1.2v.1h-1.2c.1-.1.1-.2.2-.3l2-5.8c0-.1.1-.2.1-.2v-.1h1.8c0 .1 0 .2.1.3l2 5.8c.1.2.1.2.2.3h-2.4v-.1c0-.1 0-.1-.1-.2l-.4-1.3h-1.8l-.4 1.3z" fill="#202f1c"></path></svg>