<?xml version="1.0" encoding="utf-8"?>
<!-- Generator: Adobe Illustrator 16.0.0, SVG Export Plug-In . SVG Version: 6.00 Build 0)  -->
<!DOCTYPE svg PUBLIC "-//W3C//DTD SVG 1.1//EN" "http://www.w3.org/Graphics/SVG/1.1/DTD/svg11.dtd">
<svg version="1.1" id="Layer_1" xmlns="http://www.w3.org/2000/svg" xmlns:xlink="http://www.w3.org/1999/xlink" x="0px" y="0px"
	 width="60px" height="60px" viewBox="0 0 60 60" enable-background="new 0 0 60 60" xml:space="preserve">
<g id="icomoon-ignore">
	<line fill="#FFFFFF" stroke="#449FDB" x1="0" y1="0" x2="0" y2="0"/>
</g>
<path fill="#FFFFFF" d="M54.574,60h-18c-0.553,0-1-0.45-1-1V42h-10v17c0,0.55-0.448,1-1,1h-18c-0.552,0-1-0.45-1-1V28H1.25
	c-0.416,0-0.788-0.256-0.934-0.644c-0.148-0.388-0.04-0.826,0.27-1.102l28.662-25.5c0.368-0.328,0.918-0.338,1.298-0.028l7.03,5.77
	V1c0-0.552,0.447-1,1-1h10c0.55,0,1,0.448,1,1v15.824l9.869,9.454c0.295,0.284,0.389,0.716,0.236,1.096
	C59.527,27.752,59.16,28,58.752,28h-3.178v31C55.574,59.55,55.126,60,54.574,60z M37.574,58h16V27c0-0.552,0.447-1,1-1h1.688
	l-8.378-8.028c-0.198-0.188-0.306-0.45-0.306-0.722V2h-8v6.61c0,0.386-0.221,0.74-0.572,0.904c-0.35,0.164-0.764,0.116-1.063-0.13
	l-8-6.568L3.882,26H6.58c0.552,0,1,0.448,1,1v31h16V41c0-0.55,0.448-1,1-1h12c0.552,0,1,0.45,1,1v17H37.574z"/>
</svg>
