<svg width="60" height="60" viewBox="0 0 60 60" fill="none" xmlns="http://www.w3.org/2000/svg">
<g clip-path="url(#clip0_174_1187)">
<path d="M10 10V50H50V10H10ZM47.6562 20.5869H45.2111C44.715 17.627 42.3731 15.285 39.4131 14.7889V12.3438H47.6562V20.5869ZM45.2111 37.0694C44.715 34.1095 42.373 31.7675 39.4131 31.2715V28.7286C42.373 28.2325 44.715 25.8906 45.2111 22.9307H47.6562V37.0695H45.2111V37.0694ZM14.7889 37.0694H12.3438V22.9306H14.7889C15.285 25.8905 17.627 28.2325 20.5869 28.7285V31.2714C17.627 31.7675 15.285 34.1095 14.7889 37.0694ZM31.2714 37.0694H28.7285C28.2324 34.1095 25.8905 31.7675 22.9306 31.2715V28.7286C25.8905 28.2325 28.2325 25.8906 28.7285 22.9307H31.2714C31.7675 25.8906 34.1094 28.2326 37.0693 28.7286V31.2715C34.1095 31.7675 31.7675 34.1095 31.2714 37.0694ZM38.2413 26.4825C35.6366 26.4825 33.5175 24.3634 33.5175 21.7587C33.5175 19.1541 35.6366 17.035 38.2413 17.035C40.8459 17.035 42.965 19.1541 42.965 21.7587C42.965 24.3634 40.8459 26.4825 38.2413 26.4825ZM37.0694 14.7889C34.1095 15.285 31.7675 17.627 31.2715 20.5869H28.7286C28.2325 17.627 25.8906 15.285 22.9307 14.7889V12.3438H37.0695V14.7889H37.0694ZM21.7587 17.035C24.3634 17.035 26.4825 19.1541 26.4825 21.7587C26.4825 24.3634 24.3634 26.4825 21.7587 26.4825C19.1541 26.4825 17.035 24.3634 17.035 21.7587C17.035 19.1541 19.1541 17.035 21.7587 17.035ZM21.7587 33.5175C24.3634 33.5175 26.4825 35.6366 26.4825 38.2413C26.4825 40.8459 24.3634 42.965 21.7587 42.965C19.1541 42.965 17.035 40.8459 17.035 38.2413C17.035 35.6366 19.1541 33.5175 21.7587 33.5175ZM22.9306 45.2111C25.8905 44.715 28.2325 42.373 28.7285 39.4131H31.2714C31.7675 42.373 34.1094 44.715 37.0693 45.2111V47.6562H22.9306V45.2111ZM38.2413 42.965C35.6366 42.965 33.5175 40.8459 33.5175 38.2413C33.5175 35.6366 35.6366 33.5175 38.2413 33.5175C40.8459 33.5175 42.965 35.6366 42.965 38.2413C42.965 40.8459 40.8459 42.965 38.2413 42.965ZM20.5869 12.3438V14.7889C17.627 15.285 15.285 17.627 14.7889 20.5869H12.3438V12.3438H20.5869ZM12.3438 39.4131H14.7889C15.285 42.373 17.6269 44.715 20.5869 45.2111V47.6562H12.3438V39.4131ZM39.4131 47.6562V45.2111C42.373 44.715 44.715 42.373 45.2111 39.4131H47.6562V47.6562H39.4131Z" fill="#FFF"/>
</g>
<defs>
<clipPath id="clip0_174_1187">
<rect width="40" height="40" fill="white" transform="translate(10 10)"/>
</clipPath>
</defs>
</svg>
