<svg width="60" height="60" viewBox="0 0 60 60" fill="none" xmlns="http://www.w3.org/2000/svg">
<path d="M33.7254 19.9056C35.341 11.2498 35.2344 11.8705 35.2344 11.7127C35.2344 10.7363 34.3275 10 33.125 10H26.875C25.4482 10 24.6131 11.0021 24.7855 11.9277L26.2745 19.9056C19.3984 21.6018 14.4531 27.7773 14.4531 35C14.4531 35.6472 14.9778 36.1719 15.625 36.1719H22.0387C22.6078 40.0555 25.9609 43.0469 30 43.0469C34.039 43.0469 37.3921 40.0555 37.9612 36.1719C37.9723 36.1719 44.3891 36.1719 44.3768 36.1719C45.0227 36.1709 45.5459 35.6477 45.5469 35.0018C45.5578 27.8635 40.6723 21.6192 33.7254 19.9056V19.9056ZM28.5743 19.4531L27.2473 12.3438H32.7526L31.4256 19.4531H28.5743ZM40.4673 26.9531H19.5326C24.8109 20.0907 35.1755 20.0733 40.4673 26.9531ZM30 40.7031C27.2568 40.7031 24.9598 38.7564 24.4179 36.1719H35.5821C35.0402 38.7564 32.7431 40.7031 30 40.7031ZM16.849 33.8281C16.9891 32.255 17.4099 30.7155 18.0891 29.2969H41.9108C42.5899 30.7155 43.0108 32.255 43.1509 33.8281C41.9633 33.8281 18.0509 33.8281 16.849 33.8281Z" fill="white"/>
<path d="M30 45.7031C29.3528 45.7031 28.8281 46.2278 28.8281 46.875V48.8281C28.8281 49.4753 29.3528 50 30 50C30.6472 50 31.1719 49.4753 31.1719 48.8281V46.875C31.1719 46.2278 30.6472 45.7031 30 45.7031Z" fill="white"/>
<path d="M37.6149 44.0739C37.3746 43.473 36.6928 43.1806 36.0916 43.4211C35.4907 43.6615 35.1984 44.3435 35.4389 44.9444L36.1353 46.6853C36.3185 47.1435 36.7586 47.4222 37.2237 47.4222C38.0472 47.4222 38.6203 46.587 38.3113 45.8148L37.6149 44.0739Z" fill="white"/>
<path d="M23.9084 43.421C23.3074 43.1804 22.6255 43.4729 22.3851 44.0738L21.6887 45.8147C21.3803 46.5857 21.9513 47.422 22.7764 47.422C23.2415 47.422 23.6816 47.1433 23.8648 46.685L24.5612 44.9441C24.8016 44.3433 24.5093 43.6613 23.9084 43.421Z" fill="white"/>
</svg>
