<svg width="20" height="20" viewBox="0 0 20 20" fill="none" xmlns="http://www.w3.org/2000/svg">
<g clip-path="url(#clip0)">
<path d="M19.9941 20.0001V19.9993H19.9991V12.6643C19.9991 9.07593 19.2266 6.31177 15.0316 6.31177C13.0149 6.31177 11.6616 7.41843 11.1091 8.4676H11.0508V6.64677H7.07327V19.9993H11.2149V13.3876C11.2149 11.6468 11.5449 9.96343 13.7008 9.96343C15.8249 9.96343 15.8566 11.9501 15.8566 13.4993V20.0001H19.9941Z" fill="black"/>
<path d="M0.329758 6.64746H4.47642V20H0.329758V6.64746Z" fill="black"/>
<path d="M2.40167 0C1.07583 0 0 1.07583 0 2.40167C0 3.7275 1.07583 4.82583 2.40167 4.82583C3.7275 4.82583 4.80333 3.7275 4.80333 2.40167C4.8025 1.07583 3.72667 0 2.40167 0V0Z" fill="black"/>
</g>
<defs>
<clipPath id="clip0">
<rect width="20" height="20" fill="white"/>
</clipPath>
</defs>
</svg>
