<svg width="60" height="60" viewBox="0 0 60 60" fill="none" xmlns="http://www.w3.org/2000/svg">
<path d="M42.8906 26.4844V22.8906C42.8906 15.7827 37.1079 10 30 10C22.8921 10 17.1094 15.7827 17.1094 22.8906V26.4844H14.7656V50H45.2344V26.4844H42.8906ZM19.4531 22.8906C19.4531 17.0751 24.1845 12.3438 30 12.3438C35.8155 12.3438 40.5469 17.0751 40.5469 22.8906V26.4844H38.2031V22.8906C38.2031 18.3674 34.5232 14.6875 30 14.6875C25.4768 14.6875 21.7969 18.3674 21.7969 22.8906V26.4844H19.4531V22.8906ZM35.8594 22.8906V26.4844H24.1406V22.8906C24.1406 19.6598 26.7691 17.0312 30 17.0312C33.2309 17.0312 35.8594 19.6598 35.8594 22.8906ZM42.8906 47.6562H17.1094V45.3125H42.8906V47.6562ZM42.8906 42.9688H17.1094V28.8281C17.8653 28.8281 40.7052 28.8281 42.8906 28.8281V42.9688Z" fill="white"/>
<path d="M30 31.1719C28.0615 31.1719 26.4844 32.749 26.4844 34.6875C26.4844 36.2152 27.4641 37.5178 28.8281 38.0016V40.625H31.1719V38.0016C32.5359 37.5178 33.5156 36.2152 33.5156 34.6875C33.5156 32.749 31.9385 31.1719 30 31.1719ZM30 35.8594C29.3538 35.8594 28.8281 35.3337 28.8281 34.6875C28.8281 34.0413 29.3538 33.5156 30 33.5156C30.6462 33.5156 31.1719 34.0413 31.1719 34.6875C31.1719 35.3337 30.6462 35.8594 30 35.8594Z" fill="white"/>
</svg>
