<svg width="96" height="21" viewBox="0 0 96 21" fill="none" xmlns="http://www.w3.org/2000/svg">
<path d="M8.128 20.392C5.944 20.392 4.152 19.776 2.752 18.544C1.352 17.312 0.652 15.66 0.652 13.588V0.399999H4.488V13.28C4.488 14.3067 4.77733 15.1187 5.356 15.716C5.95333 16.3133 6.87733 16.612 8.128 16.612C9.37867 16.612 10.2933 16.3133 10.872 15.716C11.4693 15.1187 11.768 14.3067 11.768 13.28V0.399999H15.632V13.588C15.632 15.66 14.932 17.312 13.532 18.544C12.132 19.776 10.3307 20.392 8.128 20.392ZM22.1403 9.976C22.1403 10.3493 22.3829 10.6573 22.8683 10.9C23.3723 11.124 23.9789 11.3293 24.6883 11.516C25.3976 11.684 26.1069 11.908 26.8163 12.188C27.5256 12.4493 28.1229 12.8973 28.6083 13.532C29.1123 14.1667 29.3643 14.96 29.3643 15.912C29.3643 17.3493 28.8229 18.46 27.7403 19.244C26.6763 20.0093 25.3416 20.392 23.7363 20.392C20.8616 20.392 18.9016 19.2813 17.8563 17.06L20.9923 15.296C21.4029 16.5093 22.3176 17.116 23.7363 17.116C25.0243 17.116 25.6683 16.7147 25.6683 15.912C25.6683 15.5387 25.4163 15.24 24.9123 15.016C24.4269 14.7733 23.8296 14.5587 23.1203 14.372C22.4109 14.1853 21.7016 13.952 20.9923 13.672C20.2829 13.392 19.6763 12.9533 19.1723 12.356C18.6869 11.74 18.4443 10.9747 18.4443 10.06C18.4443 8.67867 18.9483 7.596 19.9563 6.812C20.9829 6.00933 22.2523 5.608 23.7643 5.608C24.9029 5.608 25.9389 5.86933 26.8723 6.392C27.8056 6.896 28.5429 7.624 29.0843 8.576L26.0043 10.256C25.5563 9.304 24.8096 8.828 23.7643 8.828C23.2976 8.828 22.9056 8.93067 22.5883 9.136C22.2896 9.34133 22.1403 9.62133 22.1403 9.976ZM39.285 9.472H36.121V15.296C36.121 15.7813 36.2423 16.136 36.485 16.36C36.7277 16.584 37.0823 16.7147 37.549 16.752C38.0157 16.7707 38.5943 16.7613 39.285 16.724V20C36.8023 20.28 35.0477 20.0467 34.021 19.3C33.013 18.5533 32.509 17.2187 32.509 15.296V9.472H30.073V6H32.509V3.172L36.121 2.08V6H39.285V9.472ZM44.4462 14.484C44.9315 16.2387 46.2475 17.116 48.3942 17.116C49.7755 17.116 50.8209 16.6493 51.5302 15.716L54.4422 17.396C53.0609 19.3933 51.0262 20.392 48.3382 20.392C46.0235 20.392 44.1662 19.692 42.7662 18.292C41.3662 16.892 40.6662 15.128 40.6662 13C40.6662 10.8907 41.3569 9.136 42.7382 7.736C44.1195 6.31733 45.8929 5.608 48.0582 5.608C50.1115 5.608 51.8009 6.31733 53.1262 7.736C54.4702 9.15467 55.1422 10.9093 55.1422 13C55.1422 13.4667 55.0955 13.9613 55.0022 14.484H44.4462ZM44.3902 11.684H51.5302C51.3249 10.732 50.8955 10.0227 50.2422 9.556C49.6075 9.08933 48.8795 8.856 48.0582 8.856C47.0875 8.856 46.2849 9.108 45.6502 9.612C45.0155 10.0973 44.5955 10.788 44.3902 11.684ZM61.2757 8.408C61.6117 7.512 62.1624 6.84 62.9277 6.392C63.7117 5.944 64.5797 5.72 65.5317 5.72V9.752C64.4304 9.62133 63.4411 9.84533 62.5637 10.424C61.7051 11.0027 61.2757 11.964 61.2757 13.308V20H57.6637V6H61.2757V8.408ZM80.5522 20H76.3522L71.2562 13.644V20H67.6442V0.399999H71.2562V12.16L76.0722 6H80.3842L74.7562 12.916L80.5522 20ZM91.9834 6H95.5954V20H91.9834V18.348C90.9007 19.7107 89.3794 20.392 87.4194 20.392C85.5527 20.392 83.9474 19.6827 82.6034 18.264C81.2781 16.8267 80.6154 15.072 80.6154 13C80.6154 10.928 81.2781 9.18267 82.6034 7.764C83.9474 6.32667 85.5527 5.608 87.4194 5.608C89.3794 5.608 90.9007 6.28933 91.9834 7.652V6ZM85.3194 15.856C86.0474 16.584 86.9714 16.948 88.0914 16.948C89.2114 16.948 90.1354 16.584 90.8634 15.856C91.6101 15.1093 91.9834 14.1573 91.9834 13C91.9834 11.8427 91.6101 10.9 90.8634 10.172C90.1354 9.42533 89.2114 9.052 88.0914 9.052C86.9714 9.052 86.0474 9.42533 85.3194 10.172C84.5914 10.9 84.2274 11.8427 84.2274 13C84.2274 14.1573 84.5914 15.1093 85.3194 15.856Z" fill="black"/>
</svg>
