<?xml version="1.0" encoding="UTF-8"?>
<svg width="176px" height="20px" viewBox="0 0 176 20" version="1.1" xmlns="http://www.w3.org/2000/svg" xmlns:xlink="http://www.w3.org/1999/xlink">
    <!-- Generator: Sketch 52.6 (67491) - http://www.bohemiancoding.com/sketch -->
    <title>mamstartup-logotype copy</title>
    <desc>Created with Sketch.</desc>
    <g id="01-Homepage" stroke="none" stroke-width="1" fill="none" fill-rule="evenodd">
        <g id="01.00-Homepage" transform="translate(-117.000000, -10809.000000)">
            <g id="Footer" transform="translate(117.000000, 10804.000000)">
                <g id="mamstartup-logotype-copy" transform="translate(0.000000, 5.000000)">
                    <polygon id="Fill-1" fill="#16B777" points="15.0133593 0.302066667 11.1966265 10.2567333 7.57596112 0.302066667 3.02167327 0.302066667 -0.00026317757 18.9300667 4.60073869 18.9300667 6.08834991 8.20273333 6.13440598 8.20273333 10.2281331 18.9300667 12.0618228 18.9300667 16.3404321 8.20273333 16.3858303 8.20273333 17.6885593 18.9300667 22.3119312 18.9300667 19.6255462 0.302066667"></polygon>
                    <path d="M30.2789742,0.302066667 L23.4337256,18.9307333 L28.3419873,18.9307333 L29.5637892,15.6980667 L29.5637892,15.6974 L35.9359761,15.6974 L37.0992209,18.9300667 L42.0305107,18.9300667 L35.3254041,0.302066667 L30.2789742,0.302066667 Z M32.7554751,6.05606667 L32.8021892,6.05606667 L34.6918041,12.0060667 L30.8434901,12.0060667 L32.7554751,6.05606667 Z" id="Fill-2" fill="#16B777"></path>
                    <polygon id="Fill-3" fill="#16B777" points="58.0235484 0.302066667 54.2068157 10.2567333 50.5861503 0.302066667 46.0312045 0.302066667 43.009926 18.9300667 47.6109279 18.9300667 49.0985391 8.20273333 49.1439372 8.20273333 53.2383222 18.9300667 55.071354 18.9300667 59.3486475 8.20273333 59.3953615 8.20273333 60.6980905 18.9300667 65.3214624 18.9300667 62.6357353 0.302066667"></polygon>
                    <path d="M78.0583357,5.2628 C77.1293189,4.47213333 76.0555544,4.0688 74.8357264,4.0528 C74.3514796,4.0528 73.8948665,4.17613333 73.466545,4.42213333 C73.0059843,4.67613333 72.7678086,5.06546667 72.7520179,5.59013333 C72.7684665,6.10613333 73.0388815,6.49546667 73.5619469,6.75746667 C74.0435619,7.02013333 74.5126759,7.21413333 74.9699469,7.3408 L76.2404366,7.7108 C77.5293488,8.05213333 78.5767955,8.6048 79.3821189,9.3668 C80.1953376,10.1534667 80.6098422,11.2768 80.6256329,12.7388 C80.6256329,13.6528 80.4966759,14.5461333 80.2381039,15.4194667 C79.9722946,16.2868 79.474889,17.0454667 78.747203,17.6954667 C77.2444591,18.8634667 75.5305151,19.4401333 73.6053712,19.4241333 C71.2650647,19.3914667 69.1405637,18.6881333 67.2312105,17.3128 L69.2734684,13.4248 C69.8906198,13.9461333 70.5479058,14.3854667 71.2446684,14.7421333 C71.9565637,15.1294667 72.7125413,15.3241333 73.5119432,15.3241333 C74.0981712,15.3241333 74.6238684,15.1681333 75.0910086,14.8588 C75.5574908,14.5654667 75.7989563,14.1001333 75.8154049,13.4648 C75.8154049,13.1234667 75.7147394,12.8328 75.5127507,12.5948 C75.3028665,12.3481333 75.0337675,12.1541333 74.7067693,12.0108 C74.0007955,11.7174667 73.350089,11.5021333 72.7533338,11.3674667 C72.0401226,11.1608 71.3959955,10.9261333 70.8202946,10.6648 C70.2222236,10.4174667 69.712317,10.1168 69.290575,9.75946667 C68.8609376,9.40213333 68.538545,8.9288 68.3240553,8.3408 C68.0707469,7.7608 67.9444217,7.03813333 67.9444217,6.1728 C67.9602123,4.26613333 68.5523619,2.7688 69.7215282,1.68013333 C70.8670086,0.576133333 72.3611993,0.0154666667 74.2047581,0.000133333333 C76.2134609,0.0161333333 78.1116292,0.5268 79.9005787,1.53213333 L78.0583357,5.2628 Z" id="Fill-4" fill="#1A1818"></path>
                    <polygon id="Fill-6" fill="#1A1818" points="90.1962826 18.9301333 85.4354004 18.9301333 85.4354004 4.4028 81.6087985 4.4028 81.6087985 0.302133333 94.0261742 0.302133333 94.0261742 4.4028 90.1969406 4.4028 90.1969406 18.9301333"></polygon>
                    <path d="M102.364363,6.05606667 L102.318965,6.05606667 L100.405664,12.0060667 L104.254636,12.0060667 L102.364363,6.05606667 Z M99.1266213,15.6980667 L97.9048194,18.9307333 L92.9965578,18.9307333 L99.8404905,0.302733333 L104.88692,0.302733333 L111.592027,18.9307333 L106.661395,18.9307333 L105.497492,15.6980667 L99.1266213,15.6980667 Z" id="Fill-8" fill="#1A1818"></path>
                    <path d="M118.321412,8.656 L118.787236,8.656 C119.201741,8.656 119.604402,8.624 119.993905,8.55866667 C120.368275,8.51066667 120.719617,8.40133333 121.045957,8.23133333 C121.372956,8.07 121.631527,7.832 121.822989,7.51666667 C122.022346,7.218 122.122354,6.822 122.122354,6.33 C122.122354,5.81333333 122.023004,5.39733333 121.822989,5.082 C121.631527,4.76733333 121.372956,4.53733333 121.045957,4.39133333 C120.719617,4.222 120.368933,4.10466667 119.993905,4.04066667 C119.794548,4.00866667 119.599139,3.992 119.408335,3.992 L118.786578,3.992 L118.320754,3.992 L118.320754,8.656 L118.321412,8.656 Z M128.636656,18.93 L122.79543,18.93 L118.379311,11.764 L118.321412,11.764 L118.321412,18.93 L113.560529,18.93 L113.560529,0.302 L120.616978,0.302 C122.467116,0.302 123.97644,0.756666667 125.144948,1.66466667 C126.321352,2.582 126.916133,4.038 126.932582,6.03266667 C126.932582,7.336 126.602294,8.474 125.942376,9.44733333 C125.283116,10.3966667 124.315939,11.012 123.042159,11.2933333 L128.636656,18.93 Z" id="Fill-10" fill="#1A1818"></path>
                    <polygon id="Fill-12" fill="#1A1818" points="137.360664 18.9301333 132.60044 18.9301333 132.60044 4.4028 128.77318 4.4028 128.77318 0.302133333 141.189898 0.302133333 141.189898 4.4028 137.360664 4.4028"></polygon>
                    <path d="M158.734236,0.301866667 L158.734236,10.7745333 C158.750026,11.9818667 158.664493,13.1445333 158.478295,14.2605333 C158.268411,15.3958667 157.729555,16.4252 156.860411,17.3492 C156.092591,18.1052 155.176075,18.6412 154.113495,18.9545333 C153.050258,19.2678667 151.979125,19.4252 150.900755,19.4252 C149.83028,19.4252 148.770991,19.2678667 147.722886,18.9545333 C146.659649,18.6405333 145.732606,18.1052 144.940441,17.3492 C144.079193,16.4252 143.543626,15.3958667 143.3344,14.2605333 C143.131753,13.1438667 143.038983,11.9812 143.055432,10.7745333 L143.055432,0.301866667 L147.815656,0.301866667 L147.815656,10.1112 C147.815656,10.7225333 147.845921,11.3145333 147.905794,11.8852 C147.95843,12.4812 148.082781,13.0358667 148.278849,13.5498667 C148.482153,14.0245333 148.790729,14.4112 149.205234,14.7078667 C149.619738,15.0225333 150.184912,15.1785333 150.900097,15.1785333 C151.623178,15.1785333 152.199536,15.0225333 152.629174,14.7078667 C153.043021,14.4112 153.352254,14.0245333 153.555559,13.5498667 C153.758864,13.0358667 153.883215,12.4812 153.927955,11.8852 C153.958221,11.3145333 153.973353,10.7232 153.973353,10.1112 L153.973353,0.301866667 L158.734236,0.301866667 Z" id="Fill-14" fill="#1A1818"></path>
                    <path d="M166.878858,8.8448 L167.691418,8.8448 C168.129609,8.8448 168.56451,8.82946667 168.993489,8.7968 C169.415889,8.7808 169.781706,8.7008 170.092256,8.55613333 C170.419254,8.40346667 170.677826,8.1748 170.869287,7.86946667 C171.052196,7.5728 171.14365,7.14346667 171.14365,6.58146667 C171.14365,5.98746667 171.051538,5.52613333 170.869287,5.1968 C170.709407,4.88346667 170.466626,4.65546667 170.140286,4.5108 C169.829736,4.3668 169.463261,4.27746667 169.041519,4.24613333 C168.611224,4.22213333 168.16119,4.21013333 167.691418,4.21013333 L166.878858,4.21013333 L166.878858,8.8448 Z M162.118633,0.302133333 L169.3422,0.302133333 C171.334454,0.302133333 172.926678,0.7808 174.118873,1.73746667 C175.318962,2.7268 175.930192,4.2908 175.954536,6.4308 C175.899927,10.6928 173.764241,12.8001333 169.549452,12.7514667 L166.8782,12.7514667 L166.8782,18.9308 L162.118633,18.9308 L162.118633,0.302133333 Z" id="Fill-17" fill="#1A1818"></path>
                </g>
            </g>
        </g>
    </g>
</svg>