<?xml version="1.0" encoding="utf-8"?>
<!-- Generator: Adobe Illustrator 16.0.0, SVG Export Plug-In . SVG Version: 6.00 Build 0)  -->
<!DOCTYPE svg PUBLIC "-//W3C//DTD SVG 1.1//EN" "http://www.w3.org/Graphics/SVG/1.1/DTD/svg11.dtd">
<svg version="1.1" id="Layer_1" xmlns="http://www.w3.org/2000/svg" xmlns:xlink="http://www.w3.org/1999/xlink" x="0px" y="0px"
	 width="48px" height="48px" viewBox="0 0 48 48" enable-background="new 0 0 48 48" xml:space="preserve">
<g id="icomoon-ignore">
	<line fill="#FFFFFF" stroke="#449FDB" x1="0" y1="0" x2="0" y2="0"/>
</g>
<path fill="#FFFFFF" d="M46,35H2c-0.552,0-1-0.45-1-1V6c0-0.55,0.448-1,1-1h44c0.55,0,1,0.45,1,1v28C47,34.55,46.55,35,46,35z M3,33
	h42V7H3V33z"/>
<path fill="#FFFFFF" d="M31.998,43H16c-0.552,0-1-0.45-1-1s0.448-1,1-1c3.582,0,4.336-5.292,4.336-6.334c0-0.552,0.448-1,1-1
	c0.552,0,1,0.448,1,1c0,1.62-0.612,4.428-2.204,6.334h7.736c-1.591-1.906-2.204-4.714-2.204-6.334c0-0.552,0.449-1,1-1
	c0.55,0,1,0.448,1,1c0,1.042,0.754,6.334,4.334,6.334c0.552,0,1,0.45,1,1S32.55,43,31.998,43z"/>
<path fill="#FFFFFF" d="M9,21.916c-0.312,0-0.62-0.144-0.814-0.418c-0.322-0.452-0.218-1.074,0.232-1.394l6.166-4.416
	c0.226-0.162,0.512-0.228,0.782-0.168l10.452,2.128l12.584-7.588c0.464-0.286,1.086-0.134,1.371,0.34
	c0.287,0.47,0.135,1.086-0.34,1.372l-12.916,7.792c-0.213,0.128-0.473,0.176-0.719,0.126l-10.404-2.122L9.584,21.73
	C9.406,21.856,9.202,21.916,9,21.916z"/>
<path fill="#FFFFFF" d="M14,31h-4c-0.552,0-1-0.45-1-1v-4c0-0.55,0.448-1,1-1h4c0.552,0,1,0.45,1,1v4C15,30.55,14.552,31,14,31z
	 M11,29h2v-2h-2V29z"/>
<path fill="#FFFFFF" d="M22,31h-4c-0.552,0-1-0.45-1-1v-8c0-0.55,0.448-1,1-1h4c0.552,0,1,0.45,1,1v8C23,30.55,22.552,31,22,31z
	 M19,29h2v-6h-2V29z"/>
<path fill="#FFFFFF" d="M30,31h-4c-0.55,0-1-0.45-1-1v-6c0-0.55,0.45-1,1-1h4c0.55,0,1,0.45,1,1v6C31,30.55,30.55,31,30,31z M27,29
	h2v-4h-2V29z"/>
<path fill="#FFFFFF" d="M38,31h-4c-0.55,0-1-0.45-1-1V18c0-0.55,0.45-1,1-1h4c0.55,0,1,0.45,1,1v12C39,30.55,38.55,31,38,31z M35,29
	h2V19h-2V29z"/>
</svg>
