<?xml version="1.0" encoding="utf-8"?>
<!-- Generator: Adobe Illustrator 16.0.0, SVG Export Plug-In . SVG Version: 6.00 Build 0)  -->
<!DOCTYPE svg PUBLIC "-//W3C//DTD SVG 1.1//EN" "http://www.w3.org/Graphics/SVG/1.1/DTD/svg11.dtd">
<svg version="1.1" id="Layer_1" xmlns="http://www.w3.org/2000/svg" xmlns:xlink="http://www.w3.org/1999/xlink" x="0px" y="0px"
	 width="60px" height="60px" viewBox="0 0 60 60" enable-background="new 0 0 60 60" xml:space="preserve">
<g id="icomoon-ignore">
	<line fill="#FFFFFF" stroke="#449FDB" x1="0" y1="0" x2="0" y2="0"/>
</g>
<path fill="#FFFFFF" d="M45,60H15c-0.552,0-1-0.45-1-1V3c0-0.552,0.448-1,1-1h30c0.55,0,1,0.448,1,1v56C46,59.55,45.55,60,45,60z
	 M16,58h28V4H16V58z"/>
<path fill="#FFFFFF" d="M36,2H24c-0.552,0-1-0.448-1-1s0.448-1,1-1h12c0.55,0,1,0.448,1,1S36.55,2,36,2z"/>
<path fill="#FFFFFF" d="M27,22h-6c-0.552,0-1-0.448-1-1V11c0-0.552,0.448-1,1-1h6c0.552,0,1,0.448,1,1v10C28,21.552,27.552,22,27,22
	z M22,20h4v-8h-4V20z"/>
<path fill="#FFFFFF" d="M39,22h-6c-0.55,0-1-0.448-1-1V11c0-0.552,0.45-1,1-1h6c0.55,0,1,0.448,1,1v10C40,21.552,39.55,22,39,22z
	 M34,20h4v-8h-4V20z"/>
<path fill="#FFFFFF" d="M27,38h-6c-0.552,0-1-0.45-1-1V27c0-0.552,0.448-1,1-1h6c0.552,0,1,0.448,1,1v10C28,37.55,27.552,38,27,38z
	 M22,36h4v-8h-4V36z"/>
<path fill="#FFFFFF" d="M39,38h-6c-0.55,0-1-0.45-1-1V27c0-0.552,0.45-1,1-1h6c0.55,0,1,0.448,1,1v10C40,37.55,39.55,38,39,38z
	 M34,36h4v-8h-4V36z"/>
<path fill="#FFFFFF" d="M35,60H25c-0.552,0-1-0.45-1-1V43c0-0.55,0.448-1,1-1h10c0.55,0,1,0.45,1,1v16C36,59.55,35.55,60,35,60z
	 M26,58h8V44h-8V58z"/>
</svg>
