<svg width="60" height="60" viewBox="0 0 60 60" fill="none" xmlns="http://www.w3.org/2000/svg">
<path d="M10.0164 10V50H49.9835V10H10.0164ZM47.6383 12.3453V24.0715H12.3617V12.3453H47.6383ZM17.0522 26.4168H42.9477V42.9642H17.0522V26.4168ZM12.3617 47.6547V26.4168H14.7069V45.3095H45.293V26.4168H47.6382V47.6547H12.3617Z" fill="white"/>
<path d="M14.7069 14.6906H17.0522V17.0358H14.7069V14.6906Z" fill="white"/>
<path d="M19.3974 14.6906H21.7427V17.0358H19.3974V14.6906Z" fill="white"/>
<path d="M24.0879 14.6906H26.4332V17.0358H24.0879V14.6906Z" fill="white"/>
<path d="M32.3942 21.7263C34.334 21.7263 35.9121 20.1482 35.9121 18.2084C35.9121 16.2687 34.334 14.6906 32.3942 14.6906C30.4544 14.6906 28.8763 16.2687 28.8763 18.2084C28.8763 20.1482 30.4544 21.7263 32.3942 21.7263ZM32.3942 17.0358C33.0408 17.0358 33.5668 17.5618 33.5668 18.2084C33.5668 18.855 33.0408 19.3811 32.3942 19.3811C31.7476 19.3811 31.2216 18.855 31.2216 18.2084C31.2216 17.5618 31.7476 17.0358 32.3942 17.0358Z" fill="white"/>
<path d="M41.7752 21.7263C43.715 21.7263 45.2931 20.1482 45.2931 18.2084C45.2931 16.2687 43.715 14.6906 41.7752 14.6906C39.8354 14.6906 38.2573 16.2687 38.2573 18.2084C38.2573 20.1482 39.8354 21.7263 41.7752 21.7263ZM41.7752 17.0358C42.4218 17.0358 42.9478 17.5618 42.9478 18.2084C42.9478 18.855 42.4218 19.3811 41.7752 19.3811C41.1286 19.3811 40.6026 18.855 40.6026 18.2084C40.6026 17.5618 41.1286 17.0358 41.7752 17.0358Z" fill="white"/>
<path d="M19.3974 28.7621H40.6025V31.1073H19.3974V28.7621Z" fill="white"/>
</svg>
