<svg width="13" height="16" viewBox="0 0 13 16" fill="none" xmlns="http://www.w3.org/2000/svg">
<path d="M6.50008 0C3.41574 0 0.906494 2.6776 0.906494 5.96887C0.906494 10.8726 5.94331 15.6607 6.15781 15.8622C6.25558 15.9541 6.37781 16.0001 6.50008 16.0001C6.62235 16.0001 6.74457 15.9541 6.8424 15.8622C7.0568 15.6608 12.0937 10.8727 12.0937 5.96887C12.0937 2.6776 9.58442 0 6.50008 0ZM6.50008 4.29323C7.35685 4.29323 8.05387 5.04491 8.05387 5.96887C8.05387 6.89283 7.35685 7.6445 6.50008 7.6445C5.64331 7.6445 4.94629 6.89283 4.94629 5.96887C4.94629 5.04491 5.64331 4.29323 6.50008 4.29323Z" fill="black"/>
</svg>
