<svg width="60" height="60" viewBox="0 0 60 60" fill="none" xmlns="http://www.w3.org/2000/svg">
<g clip-path="url(#clip0_174_1265)">
<path d="M14.6875 28.7102V38.2031H13.5156C12.8684 38.2031 12.3438 38.7278 12.3438 39.375V46.4062C12.3438 47.0534 12.8684 47.5781 13.5156 47.5781H26.4062C27.0534 47.5781 27.5781 47.0534 27.5781 46.4062V39.375C27.5781 38.7278 27.0534 38.2031 26.4062 38.2031H22.8906V33.5156H27.5781C28.8102 33.5156 29.2042 31.8466 28.1022 31.2955C27.1227 30.8058 27.0265 29.4584 27.8992 28.8281H32.4209H32.4216C32.7395 28.8281 33.0424 28.6928 33.2503 28.4851C33.2504 28.485 33.2505 28.4849 33.2505 28.4849L37.5948 24.1406H41.7969C42.4441 24.1406 42.9688 23.6159 42.9688 22.9688V21.7969H48.8281C49.4753 21.7969 50 21.2722 50 20.625C50 19.9778 49.4753 19.4531 48.8281 19.4531H42.9688V18.2812C42.9688 17.6341 42.4441 17.1094 41.7969 17.1094H37.5948C37.5948 17.1094 33.2501 12.7648 33.2498 12.7645C33.0297 12.5448 32.7257 12.4219 32.4219 12.4219H15.8594C12.6285 12.4219 10 15.0504 10 18.2812V22.9688C10 25.7984 12.0162 28.1659 14.6875 28.7102V28.7102ZM25.2344 45.2344H14.6875V40.5469H25.2344V45.2344ZM17.0312 38.2031V28.8281H20.5469V38.2031H17.0312ZM25.1407 31.1719H22.8906V28.8281H25.1408C24.8962 29.5876 24.8971 30.4155 25.1407 31.1719ZM40.625 21.7969H38.2812V19.4531H40.625V21.7969ZM35.9375 22.4834L33.5938 24.8271V16.4229L35.9375 18.7666V22.4834ZM12.3438 18.2812C12.3438 16.3427 13.9209 14.7656 15.8594 14.7656H31.25V26.4844H15.8594C13.9209 26.4844 12.3438 24.9073 12.3438 22.9688V18.2812Z" fill="#FFF"/>
<path d="M15.8594 24.1406H18.2031C18.8503 24.1406 19.375 23.6159 19.375 22.9688C19.375 22.3216 18.8503 21.7969 18.2031 21.7969H15.8594C15.2122 21.7969 14.6875 22.3216 14.6875 22.9688C14.6875 23.6159 15.2122 24.1406 15.8594 24.1406Z" fill="#FFF"/>
<path d="M15.8594 19.4531H18.2031C18.8503 19.4531 19.375 18.9284 19.375 18.2812C19.375 17.6341 18.8503 17.1094 18.2031 17.1094H15.8594C15.2122 17.1094 14.6875 17.6341 14.6875 18.2812C14.6875 18.9284 15.2122 19.4531 15.8594 19.4531Z" fill="#FFF"/>
<path d="M47.9995 24.4839L45.6558 26.8276C45.1981 27.2853 45.1981 28.0272 45.6558 28.4849C46.1135 28.9425 46.8554 28.9425 47.3131 28.4849L49.6568 26.1411C50.1145 25.6835 50.1145 24.9415 49.6568 24.4839C49.1991 24.0262 48.4571 24.0262 47.9995 24.4839Z" fill="#FFF"/>
<path d="M47.3129 12.7651C46.8554 12.3075 46.1133 12.3075 45.6557 12.7651C45.198 13.2228 45.198 13.9647 45.6557 14.4224L47.9994 16.7661C48.457 17.2238 49.199 17.2238 49.6567 16.7661C50.1144 16.3085 50.1144 15.5665 49.6567 15.1089L47.3129 12.7651Z" fill="#FFF"/>
</g>
<defs>
<clipPath id="clip0_174_1265">
<rect width="40" height="40" fill="white" transform="translate(10 10)"/>
</clipPath>
</defs>
</svg>
