<?xml version="1.0" encoding="utf-8"?>
<!-- Generator: Adobe Illustrator 16.0.3, SVG Export Plug-In . SVG Version: 6.00 Build 0)  -->
<!DOCTYPE svg PUBLIC "-//W3C//DTD SVG 1.1//EN" "http://www.w3.org/Graphics/SVG/1.1/DTD/svg11.dtd">
<svg version="1.1" id="Warstwa_1" xmlns="http://www.w3.org/2000/svg" xmlns:xlink="http://www.w3.org/1999/xlink" x="0px" y="0px"
	 width="12px" height="12px" viewBox="0 0 12 12" enable-background="new 0 0 12 12" xml:space="preserve">
<path d="M11.037,7.877c-0.734,0-1.456-0.115-2.14-0.341c-0.335-0.114-0.747-0.01-0.951,0.2l-1.35,1.019
	C5.032,7.92,4.068,6.956,3.244,5.403l0.989-1.314C4.49,3.833,4.582,3.458,4.472,3.106C4.245,2.419,4.13,1.698,4.13,0.963
	C4.13,0.432,3.697,0,3.167,0H0.963C0.432,0,0,0.432,0,0.963C0,7.049,4.951,12,11.037,12C11.568,12,12,11.568,12,11.037V8.84
	C12,8.309,11.568,7.877,11.037,7.877z"/>
</svg>
