<svg width="15" height="15" viewBox="0 0 15 15" fill="none" xmlns="http://www.w3.org/2000/svg">
<g clip-path="url(#clip0)">
<path d="M7.49983 0C4.41549 0 1.90625 2.51025 1.90625 5.59581C1.90625 10.1931 6.94307 14.6819 7.15756 14.8708C7.25534 14.9569 7.37756 15.0001 7.49983 15.0001C7.62211 15.0001 7.74433 14.957 7.84216 14.8708C8.05655 14.682 13.0934 10.1931 13.0934 5.59581C13.0934 2.51025 10.5842 0 7.49983 0ZM7.49983 4.0249C8.3566 4.0249 9.05362 4.7296 9.05362 5.59581C9.05362 6.46203 8.3566 7.16672 7.49983 7.16672C6.64307 7.16672 5.94605 6.46203 5.94605 5.59581C5.94605 4.7296 6.64307 4.0249 7.49983 4.0249Z" fill="#1272F3"/>
</g>
<defs>
<clipPath id="clip0">
<rect width="15" height="15" fill="white"/>
</clipPath>
</defs>
</svg>
