<svg width="60" height="60" viewBox="0 0 60 60" fill="none" xmlns="http://www.w3.org/2000/svg">
<path d="M41.875 10H18.125C16.0573 10 14.375 11.6823 14.375 13.75V48.75C14.375 49.4403 14.9347 50 15.625 50H44.375C45.0654 50 45.625 49.4403 45.625 48.75V13.75C45.625 11.6823 43.9428 10 41.875 10ZM18.125 12.5H41.875C42.5642 12.5 43.125 13.0608 43.125 13.75V17.5H16.875V13.75C16.875 13.0608 17.4358 12.5 18.125 12.5ZM16.875 47.5V20H43.125V47.5H16.875Z" fill="white"/>
<path d="M39.375 16.25H40C40.6904 16.25 41.25 15.6903 41.25 15C41.25 14.3097 40.6904 13.75 40 13.75H39.375C38.6846 13.75 38.125 14.3097 38.125 15C38.125 15.6903 38.6846 16.25 39.375 16.25Z" fill="white"/>
<path d="M34.375 16.25H35C35.6904 16.25 36.25 15.6903 36.25 15C36.25 14.3097 35.6904 13.75 35 13.75H34.375C33.6846 13.75 33.125 14.3097 33.125 15C33.125 15.6903 33.6846 16.25 34.375 16.25Z" fill="white"/>
<path d="M39.9998 33.7341C39.9911 28.2273 35.5087 23.75 30 23.75C24.4862 23.75 20.0003 28.2356 20 33.7494C19.9905 39.197 24.4302 43.75 30 43.75C35.6184 43.75 40.0639 39.0997 39.9998 33.7341ZM30 26.25C33.8554 26.25 37.0402 29.1743 37.454 32.9212C34.1165 34.1523 32.4263 33.4299 30.4924 32.6011C28.5413 31.765 26.3674 30.8337 22.7345 31.8861C23.5654 28.6493 26.5077 26.25 30 26.25ZM30 41.25C26.1446 41.25 22.9598 38.3257 22.546 34.5788C28.2187 32.4865 29.3443 36.0835 34.1998 36.0834C35.1001 36.0833 36.1095 35.948 37.2657 35.6132C36.4352 38.8503 33.4926 41.25 30 41.25V41.25Z" fill="white"/>
</svg>
