<svg width="60" height="60" viewBox="0 0 60 60" fill="none" xmlns="http://www.w3.org/2000/svg">
<path d="M48.8281 14.8438C48.1809 14.8438 47.6562 15.3684 47.6562 16.0156V17.1875H44.0625C36.9546 17.1875 31.1719 22.9702 31.1719 30.0781V34.7656C31.1719 36.7041 29.5948 38.2812 27.6562 38.2812C25.7177 38.2812 24.1406 36.7041 24.1406 34.7656V12.3438H25.3906C26.0378 12.3438 26.5625 11.8191 26.5625 11.1719C26.5625 10.5247 26.0378 10 25.3906 10H11.1719C10.5247 10 10 10.5247 10 11.1719C10 11.8191 10.5247 12.3438 11.1719 12.3438H12.4219V34.7656C12.4219 43.1659 19.256 50 27.6562 50C36.0565 50 42.8906 43.1659 42.8906 34.7656V30.0781C42.8906 29.432 43.4163 28.9062 44.0625 28.9062H47.6562V30.0781C47.6562 30.7253 48.1809 31.25 48.8281 31.25C49.4753 31.25 50 30.7253 50 30.0781V16.0156C50 15.3684 49.4753 14.8438 48.8281 14.8438ZM14.7656 34.7656V12.3438H21.7969V34.7656C21.7969 37.5952 23.8131 39.9627 26.4844 40.5071V47.6024C19.9237 47.0084 14.7656 41.4785 14.7656 34.7656ZM44.0625 26.5625C42.124 26.5625 40.5469 28.1396 40.5469 30.0781V34.7656C40.5469 41.4784 35.3888 47.0083 28.8281 47.6024V40.5071C31.4994 39.9627 33.5156 37.5953 33.5156 34.7656V30.0781C33.5156 24.2626 38.247 19.5312 44.0625 19.5312H47.6562V26.5625H44.0625Z" fill="white"/>
</svg>
